<?xml version="1.0" encoding="UTF-8" standalone="no"?>
<!DOCTYPE svg PUBLIC "-//W3C//DTD SVG 1.1//EN" "http://www.w3.org/Graphics/SVG/1.1/DTD/svg11.dtd">
<svg width="100%" height="100%" viewBox="0 0 6204 1947" version="1.1" xmlns="http://www.w3.org/2000/svg" xmlns:xlink="http://www.w3.org/1999/xlink" xml:space="preserve" xmlns:serif="http://www.serif.com/" style="fill-rule:evenodd;clip-rule:evenodd;stroke-linejoin:round;stroke-miterlimit:2;">
    <g id="tagline" transform="matrix(0.930444,0,0,0.0796665,655.771,1369.65)">
        <rect x="0" y="0" width="2550" height="3300" style="fill:none;"/>
        <g transform="matrix(1.07476,0,0,12.5523,-555.198,-10569.4)">
            <g>
                <g transform="matrix(200,0,0,200,557.877,1048.11)">
                    <path d="M-0.058,-0L0.324,-0.714L0.459,-0.714L0.54,-0L0.427,-0L0.406,-0.199L0.168,-0.199L0.065,-0L-0.058,-0ZM0.218,-0.299L0.399,-0.299L0.383,-0.474C0.381,-0.496 0.379,-0.519 0.377,-0.544C0.375,-0.568 0.374,-0.591 0.374,-0.613L0.372,-0.613C0.363,-0.591 0.354,-0.57 0.343,-0.547C0.332,-0.524 0.321,-0.501 0.309,-0.477L0.218,-0.299Z" style="fill:rgb(10,27,61);fill-rule:nonzero;"/>
                </g>
                <g transform="matrix(200,0,0,200,676.725,1048.11)">
                    <path d="M0.247,0.01C0.208,0.01 0.174,0.003 0.144,-0.012C0.113,-0.026 0.09,-0.048 0.072,-0.078C0.055,-0.107 0.046,-0.145 0.046,-0.191C0.046,-0.229 0.05,-0.267 0.059,-0.302C0.067,-0.338 0.079,-0.371 0.095,-0.401C0.111,-0.431 0.13,-0.457 0.154,-0.48C0.177,-0.502 0.203,-0.519 0.233,-0.532C0.262,-0.544 0.295,-0.551 0.331,-0.551C0.359,-0.551 0.385,-0.548 0.409,-0.543C0.434,-0.537 0.456,-0.53 0.477,-0.52L0.443,-0.43C0.427,-0.437 0.411,-0.443 0.393,-0.449C0.375,-0.454 0.356,-0.457 0.334,-0.457C0.308,-0.457 0.284,-0.45 0.263,-0.436C0.242,-0.421 0.224,-0.402 0.209,-0.378C0.194,-0.353 0.182,-0.325 0.174,-0.294C0.166,-0.263 0.162,-0.231 0.162,-0.197C0.162,-0.173 0.166,-0.153 0.175,-0.136C0.183,-0.119 0.195,-0.106 0.21,-0.097C0.226,-0.088 0.244,-0.083 0.266,-0.083C0.29,-0.083 0.313,-0.087 0.334,-0.094C0.355,-0.101 0.376,-0.11 0.397,-0.12L0.397,-0.025C0.377,-0.015 0.355,-0.006 0.33,0C0.305,0.007 0.278,0.01 0.247,0.01Z" style="fill:rgb(10,27,61);fill-rule:nonzero;"/>
                </g>
                <g transform="matrix(200,0,0,200,770.329,1048.11)">
                    <path d="M0.247,0.01C0.208,0.01 0.174,0.003 0.144,-0.012C0.113,-0.026 0.09,-0.048 0.072,-0.078C0.055,-0.107 0.046,-0.145 0.046,-0.191C0.046,-0.229 0.05,-0.267 0.059,-0.302C0.067,-0.338 0.079,-0.371 0.095,-0.401C0.111,-0.431 0.13,-0.457 0.154,-0.48C0.177,-0.502 0.203,-0.519 0.233,-0.532C0.262,-0.544 0.295,-0.551 0.331,-0.551C0.359,-0.551 0.385,-0.548 0.409,-0.543C0.434,-0.537 0.456,-0.53 0.477,-0.52L0.443,-0.43C0.427,-0.437 0.411,-0.443 0.393,-0.449C0.375,-0.454 0.356,-0.457 0.334,-0.457C0.308,-0.457 0.284,-0.45 0.263,-0.436C0.242,-0.421 0.224,-0.402 0.209,-0.378C0.194,-0.353 0.182,-0.325 0.174,-0.294C0.166,-0.263 0.162,-0.231 0.162,-0.197C0.162,-0.173 0.166,-0.153 0.175,-0.136C0.183,-0.119 0.195,-0.106 0.21,-0.097C0.226,-0.088 0.244,-0.083 0.266,-0.083C0.29,-0.083 0.313,-0.087 0.334,-0.094C0.355,-0.101 0.376,-0.11 0.397,-0.12L0.397,-0.025C0.377,-0.015 0.355,-0.006 0.33,0C0.305,0.007 0.278,0.01 0.247,0.01Z" style="fill:rgb(10,27,61);fill-rule:nonzero;"/>
                </g>
                <g transform="matrix(200,0,0,200,863.932,1048.11)">
                    <path d="M0.251,0.01C0.21,0.01 0.174,0.002 0.143,-0.014C0.113,-0.03 0.089,-0.053 0.072,-0.084C0.055,-0.114 0.047,-0.152 0.047,-0.197C0.047,-0.241 0.053,-0.284 0.066,-0.326C0.079,-0.369 0.097,-0.407 0.122,-0.44C0.147,-0.474 0.177,-0.501 0.212,-0.521C0.248,-0.541 0.288,-0.551 0.333,-0.551C0.389,-0.551 0.43,-0.538 0.458,-0.513C0.486,-0.488 0.5,-0.455 0.5,-0.414C0.5,-0.386 0.494,-0.361 0.481,-0.338C0.468,-0.315 0.449,-0.295 0.423,-0.278C0.397,-0.261 0.364,-0.248 0.325,-0.239C0.285,-0.23 0.239,-0.226 0.185,-0.226L0.164,-0.226C0.163,-0.221 0.163,-0.216 0.162,-0.211C0.162,-0.206 0.162,-0.201 0.162,-0.196C0.162,-0.16 0.171,-0.131 0.19,-0.11C0.209,-0.09 0.237,-0.079 0.273,-0.079C0.3,-0.079 0.325,-0.083 0.349,-0.09C0.372,-0.097 0.398,-0.107 0.426,-0.12L0.426,-0.03C0.4,-0.017 0.373,-0.008 0.346,-0.001C0.319,0.006 0.287,0.01 0.251,0.01ZM0.177,-0.308L0.194,-0.308C0.234,-0.308 0.269,-0.312 0.298,-0.32C0.327,-0.328 0.35,-0.339 0.366,-0.354C0.382,-0.369 0.39,-0.388 0.39,-0.409C0.39,-0.426 0.384,-0.44 0.374,-0.449C0.363,-0.459 0.347,-0.464 0.326,-0.464C0.306,-0.464 0.286,-0.458 0.266,-0.445C0.246,-0.432 0.228,-0.414 0.213,-0.391C0.197,-0.368 0.185,-0.34 0.177,-0.308Z" style="fill:rgb(10,27,61);fill-rule:nonzero;"/>
                </g>
                <g transform="matrix(200,0,0,200,969.45,1048.11)">
                    <path d="M0.023,-0L0.184,-0.76L0.298,-0.76L0.137,-0L0.023,-0Z" style="fill:rgb(10,27,61);fill-rule:nonzero;"/>
                </g>
                <g transform="matrix(200,0,0,200,1024.38,1048.11)">
                    <path d="M0.251,0.01C0.21,0.01 0.174,0.002 0.143,-0.014C0.113,-0.03 0.089,-0.053 0.072,-0.084C0.055,-0.114 0.047,-0.152 0.047,-0.197C0.047,-0.241 0.053,-0.284 0.066,-0.326C0.079,-0.369 0.097,-0.407 0.122,-0.44C0.147,-0.474 0.177,-0.501 0.212,-0.521C0.248,-0.541 0.288,-0.551 0.333,-0.551C0.389,-0.551 0.43,-0.538 0.458,-0.513C0.486,-0.488 0.5,-0.455 0.5,-0.414C0.5,-0.386 0.494,-0.361 0.481,-0.338C0.468,-0.315 0.449,-0.295 0.423,-0.278C0.397,-0.261 0.364,-0.248 0.325,-0.239C0.285,-0.23 0.239,-0.226 0.185,-0.226L0.164,-0.226C0.163,-0.221 0.163,-0.216 0.162,-0.211C0.162,-0.206 0.162,-0.201 0.162,-0.196C0.162,-0.16 0.171,-0.131 0.19,-0.11C0.209,-0.09 0.237,-0.079 0.273,-0.079C0.3,-0.079 0.325,-0.083 0.349,-0.09C0.372,-0.097 0.398,-0.107 0.426,-0.12L0.426,-0.03C0.4,-0.017 0.373,-0.008 0.346,-0.001C0.319,0.006 0.287,0.01 0.251,0.01ZM0.177,-0.308L0.194,-0.308C0.234,-0.308 0.269,-0.312 0.298,-0.32C0.327,-0.328 0.35,-0.339 0.366,-0.354C0.382,-0.369 0.39,-0.388 0.39,-0.409C0.39,-0.426 0.384,-0.44 0.374,-0.449C0.363,-0.459 0.347,-0.464 0.326,-0.464C0.306,-0.464 0.286,-0.458 0.266,-0.445C0.246,-0.432 0.228,-0.414 0.213,-0.391C0.197,-0.368 0.185,-0.34 0.177,-0.308Z" style="fill:rgb(10,27,61);fill-rule:nonzero;"/>
                </g>
                <g transform="matrix(200,0,0,200,1129.9,1048.11)">
                    <path d="M0.023,-0L0.138,-0.541L0.227,-0.541L0.216,-0.438L0.221,-0.438C0.235,-0.459 0.25,-0.478 0.267,-0.495C0.283,-0.512 0.302,-0.526 0.322,-0.536C0.342,-0.546 0.364,-0.551 0.389,-0.551C0.398,-0.551 0.407,-0.55 0.417,-0.549C0.426,-0.548 0.434,-0.546 0.442,-0.544L0.417,-0.437C0.41,-0.439 0.402,-0.441 0.394,-0.442C0.385,-0.443 0.376,-0.444 0.367,-0.444C0.345,-0.444 0.325,-0.439 0.306,-0.429C0.287,-0.419 0.27,-0.405 0.255,-0.387C0.239,-0.369 0.226,-0.348 0.215,-0.324C0.204,-0.3 0.195,-0.274 0.189,-0.246L0.137,-0L0.023,-0Z" style="fill:rgb(10,27,61);fill-rule:nonzero;"/>
                </g>
                <g transform="matrix(200,0,0,200,1211.49,1048.11)">
                    <path d="M0.196,0.01C0.168,0.01 0.143,0.003 0.12,-0.01C0.098,-0.024 0.08,-0.045 0.066,-0.073C0.053,-0.101 0.046,-0.137 0.046,-0.181C0.046,-0.218 0.05,-0.255 0.058,-0.291C0.066,-0.327 0.078,-0.36 0.092,-0.391C0.107,-0.423 0.125,-0.45 0.146,-0.474C0.168,-0.498 0.192,-0.517 0.218,-0.53C0.245,-0.544 0.274,-0.551 0.304,-0.551C0.328,-0.551 0.349,-0.547 0.366,-0.539C0.384,-0.531 0.398,-0.52 0.411,-0.507C0.423,-0.493 0.432,-0.478 0.44,-0.462L0.444,-0.462L0.474,-0.541L0.561,-0.541L0.447,-0L0.359,-0L0.37,-0.087L0.366,-0.087C0.352,-0.069 0.337,-0.053 0.32,-0.039C0.302,-0.024 0.284,-0.012 0.263,-0.003C0.243,0.005 0.22,0.01 0.196,0.01ZM0.238,-0.083C0.26,-0.083 0.282,-0.092 0.303,-0.109C0.324,-0.126 0.342,-0.149 0.359,-0.177C0.375,-0.206 0.386,-0.237 0.394,-0.271C0.398,-0.287 0.401,-0.302 0.402,-0.317C0.404,-0.331 0.405,-0.346 0.405,-0.361C0.405,-0.389 0.397,-0.412 0.382,-0.43C0.367,-0.448 0.347,-0.457 0.321,-0.457C0.303,-0.457 0.286,-0.452 0.27,-0.442C0.254,-0.432 0.239,-0.418 0.226,-0.4C0.213,-0.382 0.202,-0.362 0.192,-0.339C0.182,-0.316 0.175,-0.291 0.17,-0.264C0.165,-0.238 0.162,-0.211 0.162,-0.183C0.162,-0.15 0.169,-0.126 0.182,-0.109C0.195,-0.092 0.214,-0.083 0.238,-0.083Z" style="fill:rgb(10,27,61);fill-rule:nonzero;"/>
                </g>
                <g transform="matrix(200,0,0,200,1327.46,1048.11)">
                    <path d="M0.19,0.01C0.151,0.01 0.119,0.001 0.094,-0.017C0.07,-0.034 0.057,-0.066 0.057,-0.11C0.057,-0.119 0.058,-0.129 0.059,-0.139C0.06,-0.15 0.062,-0.161 0.064,-0.172L0.124,-0.454L0.046,-0.454L0.057,-0.508L0.149,-0.546L0.21,-0.66L0.282,-0.66L0.257,-0.541L0.395,-0.541L0.376,-0.454L0.239,-0.454L0.179,-0.172C0.177,-0.165 0.176,-0.158 0.175,-0.15C0.173,-0.142 0.173,-0.136 0.173,-0.129C0.173,-0.115 0.177,-0.103 0.185,-0.095C0.193,-0.087 0.205,-0.083 0.222,-0.083C0.235,-0.083 0.247,-0.084 0.259,-0.087C0.271,-0.089 0.283,-0.093 0.297,-0.098L0.297,-0.012C0.285,-0.006 0.27,-0.001 0.25,0.003C0.231,0.008 0.211,0.01 0.19,0.01Z" style="fill:rgb(10,27,61);fill-rule:nonzero;"/>
                </g>
                <g transform="matrix(200,0,0,200,1401.43,1048.11)">
                    <path d="M0.251,0.01C0.21,0.01 0.174,0.002 0.143,-0.014C0.113,-0.03 0.089,-0.053 0.072,-0.084C0.055,-0.114 0.047,-0.152 0.047,-0.197C0.047,-0.241 0.053,-0.284 0.066,-0.326C0.079,-0.369 0.097,-0.407 0.122,-0.44C0.147,-0.474 0.177,-0.501 0.212,-0.521C0.248,-0.541 0.288,-0.551 0.333,-0.551C0.389,-0.551 0.43,-0.538 0.458,-0.513C0.486,-0.488 0.5,-0.455 0.5,-0.414C0.5,-0.386 0.494,-0.361 0.481,-0.338C0.468,-0.315 0.449,-0.295 0.423,-0.278C0.397,-0.261 0.364,-0.248 0.325,-0.239C0.285,-0.23 0.239,-0.226 0.185,-0.226L0.164,-0.226C0.163,-0.221 0.163,-0.216 0.162,-0.211C0.162,-0.206 0.162,-0.201 0.162,-0.196C0.162,-0.16 0.171,-0.131 0.19,-0.11C0.209,-0.09 0.237,-0.079 0.273,-0.079C0.3,-0.079 0.325,-0.083 0.349,-0.09C0.372,-0.097 0.398,-0.107 0.426,-0.12L0.426,-0.03C0.4,-0.017 0.373,-0.008 0.346,-0.001C0.319,0.006 0.287,0.01 0.251,0.01ZM0.177,-0.308L0.194,-0.308C0.234,-0.308 0.269,-0.312 0.298,-0.32C0.327,-0.328 0.35,-0.339 0.366,-0.354C0.382,-0.369 0.39,-0.388 0.39,-0.409C0.39,-0.426 0.384,-0.44 0.374,-0.449C0.363,-0.459 0.347,-0.464 0.326,-0.464C0.306,-0.464 0.286,-0.458 0.266,-0.445C0.246,-0.432 0.228,-0.414 0.213,-0.391C0.197,-0.368 0.185,-0.34 0.177,-0.308Z" style="fill:rgb(10,27,61);fill-rule:nonzero;"/>
                </g>
                <g transform="matrix(200,0,0,200,1506.95,1048.11)">
                </g>
                <g transform="matrix(200,0,0,200,1558.9,1048.11)">
                    <path d="M0.034,-0L0.185,-0.714L0.301,-0.714L0.239,-0.422L0.517,-0.422L0.579,-0.714L0.694,-0.714L0.543,-0L0.428,-0L0.496,-0.322L0.218,-0.322L0.15,-0L0.034,-0Z" style="fill:rgb(10,27,61);fill-rule:nonzero;"/>
                </g>
                <g transform="matrix(200,0,0,200,1696.94,1048.11)">
                    <path d="M0.191,0.01C0.162,0.01 0.137,0.004 0.117,-0.007C0.096,-0.019 0.081,-0.035 0.07,-0.057C0.06,-0.079 0.055,-0.104 0.055,-0.135C0.055,-0.148 0.056,-0.163 0.058,-0.179C0.06,-0.195 0.062,-0.212 0.066,-0.229L0.132,-0.541L0.247,-0.541L0.177,-0.212C0.174,-0.2 0.172,-0.188 0.171,-0.178C0.169,-0.168 0.169,-0.158 0.169,-0.15C0.169,-0.128 0.174,-0.112 0.184,-0.1C0.195,-0.089 0.211,-0.083 0.232,-0.083C0.256,-0.083 0.279,-0.092 0.301,-0.11C0.323,-0.128 0.344,-0.154 0.362,-0.188C0.38,-0.221 0.394,-0.262 0.404,-0.31L0.453,-0.541L0.566,-0.541L0.452,-0L0.362,-0L0.374,-0.102L0.369,-0.102C0.356,-0.083 0.341,-0.065 0.324,-0.048C0.306,-0.031 0.287,-0.017 0.265,-0.006C0.243,0.004 0.219,0.01 0.191,0.01Z" style="fill:rgb(10,27,61);fill-rule:nonzero;"/>
                </g>
                <g transform="matrix(200,0,0,200,1814.96,1048.11)">
                    <path d="M0.023,-0L0.138,-0.541L0.227,-0.541L0.216,-0.438L0.22,-0.438C0.233,-0.458 0.248,-0.476 0.265,-0.493C0.282,-0.51 0.301,-0.524 0.322,-0.534C0.343,-0.545 0.367,-0.551 0.394,-0.551C0.432,-0.551 0.46,-0.54 0.481,-0.519C0.501,-0.499 0.513,-0.47 0.518,-0.434L0.522,-0.434C0.535,-0.455 0.551,-0.474 0.568,-0.492C0.586,-0.509 0.606,-0.523 0.628,-0.534C0.651,-0.545 0.675,-0.551 0.702,-0.551C0.745,-0.551 0.778,-0.538 0.801,-0.512C0.823,-0.487 0.834,-0.452 0.834,-0.406C0.834,-0.393 0.834,-0.379 0.832,-0.364C0.83,-0.35 0.827,-0.335 0.823,-0.32L0.756,-0L0.642,-0L0.712,-0.328C0.714,-0.341 0.717,-0.352 0.718,-0.363C0.719,-0.373 0.72,-0.382 0.72,-0.391C0.72,-0.413 0.715,-0.429 0.705,-0.44C0.695,-0.451 0.68,-0.457 0.66,-0.457C0.643,-0.457 0.626,-0.452 0.61,-0.442C0.593,-0.432 0.578,-0.417 0.563,-0.398C0.549,-0.379 0.536,-0.356 0.524,-0.328C0.513,-0.301 0.503,-0.271 0.496,-0.236L0.447,-0L0.333,-0L0.402,-0.327C0.405,-0.34 0.407,-0.352 0.408,-0.362C0.409,-0.373 0.41,-0.382 0.41,-0.39C0.41,-0.411 0.405,-0.428 0.396,-0.44C0.387,-0.451 0.372,-0.457 0.352,-0.457C0.335,-0.457 0.318,-0.452 0.302,-0.442C0.285,-0.432 0.27,-0.417 0.255,-0.397C0.24,-0.378 0.227,-0.354 0.215,-0.326C0.203,-0.299 0.194,-0.267 0.186,-0.231L0.137,-0L0.023,-0Z" style="fill:rgb(10,27,61);fill-rule:nonzero;"/>
                </g>
                <g transform="matrix(200,0,0,200,1992.59,1048.11)">
                    <path d="M0.196,0.01C0.168,0.01 0.143,0.003 0.12,-0.01C0.098,-0.024 0.08,-0.045 0.066,-0.073C0.053,-0.101 0.046,-0.137 0.046,-0.181C0.046,-0.218 0.05,-0.255 0.058,-0.291C0.066,-0.327 0.078,-0.36 0.092,-0.391C0.107,-0.423 0.125,-0.45 0.146,-0.474C0.168,-0.498 0.192,-0.517 0.218,-0.53C0.245,-0.544 0.274,-0.551 0.304,-0.551C0.328,-0.551 0.349,-0.547 0.366,-0.539C0.384,-0.531 0.398,-0.52 0.411,-0.507C0.423,-0.493 0.432,-0.478 0.44,-0.462L0.444,-0.462L0.474,-0.541L0.561,-0.541L0.447,-0L0.359,-0L0.37,-0.087L0.366,-0.087C0.352,-0.069 0.337,-0.053 0.32,-0.039C0.302,-0.024 0.284,-0.012 0.263,-0.003C0.243,0.005 0.22,0.01 0.196,0.01ZM0.238,-0.083C0.26,-0.083 0.282,-0.092 0.303,-0.109C0.324,-0.126 0.342,-0.149 0.359,-0.177C0.375,-0.206 0.386,-0.237 0.394,-0.271C0.398,-0.287 0.401,-0.302 0.402,-0.317C0.404,-0.331 0.405,-0.346 0.405,-0.361C0.405,-0.389 0.397,-0.412 0.382,-0.43C0.367,-0.448 0.347,-0.457 0.321,-0.457C0.303,-0.457 0.286,-0.452 0.27,-0.442C0.254,-0.432 0.239,-0.418 0.226,-0.4C0.213,-0.382 0.202,-0.362 0.192,-0.339C0.182,-0.316 0.175,-0.291 0.17,-0.264C0.165,-0.238 0.162,-0.211 0.162,-0.183C0.162,-0.15 0.169,-0.126 0.182,-0.109C0.195,-0.092 0.214,-0.083 0.238,-0.083Z" style="fill:rgb(10,27,61);fill-rule:nonzero;"/>
                </g>
                <g transform="matrix(200,0,0,200,2108.56,1048.11)">
                    <path d="M0.021,-0L0.137,-0.542L0.229,-0.542L0.217,-0.44L0.22,-0.44C0.233,-0.459 0.248,-0.477 0.266,-0.494C0.283,-0.511 0.302,-0.525 0.324,-0.536C0.346,-0.547 0.371,-0.552 0.398,-0.552C0.428,-0.552 0.454,-0.546 0.474,-0.534C0.495,-0.523 0.511,-0.506 0.522,-0.484C0.532,-0.463 0.538,-0.437 0.538,-0.406C0.538,-0.393 0.537,-0.378 0.535,-0.363C0.533,-0.348 0.53,-0.333 0.527,-0.319L0.459,-0L0.342,-0L0.412,-0.328C0.414,-0.341 0.417,-0.353 0.418,-0.363C0.42,-0.373 0.42,-0.382 0.42,-0.391C0.42,-0.413 0.415,-0.429 0.405,-0.439C0.394,-0.45 0.378,-0.456 0.357,-0.456C0.334,-0.456 0.312,-0.447 0.29,-0.429C0.268,-0.411 0.248,-0.386 0.23,-0.352C0.212,-0.319 0.198,-0.278 0.188,-0.231L0.138,-0L0.021,-0Z" style="fill:rgb(10,27,61);fill-rule:nonzero;"/>
                </g>
                <g transform="matrix(200,0,0,200,2226.58,1048.11)">
                </g>
                <g transform="matrix(200,0,0,200,2278.53,1048.11)">
                    <path d="M0.033,-0L0.185,-0.714L0.301,-0.714L0.148,-0L0.033,-0Z" style="fill:rgb(10,27,61);fill-rule:nonzero;"/>
                </g>
                <g transform="matrix(200,0,0,200,2337.61,1048.11)">
                    <path d="M0.021,-0L0.137,-0.542L0.229,-0.542L0.217,-0.44L0.22,-0.44C0.233,-0.459 0.248,-0.477 0.266,-0.494C0.283,-0.511 0.302,-0.525 0.324,-0.536C0.346,-0.547 0.371,-0.552 0.398,-0.552C0.428,-0.552 0.454,-0.546 0.474,-0.534C0.495,-0.523 0.511,-0.506 0.522,-0.484C0.532,-0.463 0.538,-0.437 0.538,-0.406C0.538,-0.393 0.537,-0.378 0.535,-0.363C0.533,-0.348 0.53,-0.333 0.527,-0.319L0.459,-0L0.342,-0L0.412,-0.328C0.414,-0.341 0.417,-0.353 0.418,-0.363C0.42,-0.373 0.42,-0.382 0.42,-0.391C0.42,-0.413 0.415,-0.429 0.405,-0.439C0.394,-0.45 0.378,-0.456 0.357,-0.456C0.334,-0.456 0.312,-0.447 0.29,-0.429C0.268,-0.411 0.248,-0.386 0.23,-0.352C0.212,-0.319 0.198,-0.278 0.188,-0.231L0.138,-0L0.021,-0Z" style="fill:rgb(10,27,61);fill-rule:nonzero;"/>
                </g>
                <g transform="matrix(200,0,0,200,2455.63,1048.11)">
                    <path d="M0.19,0.01C0.151,0.01 0.119,0.001 0.094,-0.017C0.07,-0.034 0.057,-0.066 0.057,-0.11C0.057,-0.119 0.058,-0.129 0.059,-0.139C0.06,-0.15 0.062,-0.161 0.064,-0.172L0.124,-0.454L0.046,-0.454L0.057,-0.508L0.149,-0.546L0.21,-0.66L0.282,-0.66L0.257,-0.541L0.395,-0.541L0.376,-0.454L0.239,-0.454L0.179,-0.172C0.177,-0.165 0.176,-0.158 0.175,-0.15C0.173,-0.142 0.173,-0.136 0.173,-0.129C0.173,-0.115 0.177,-0.103 0.185,-0.095C0.193,-0.087 0.205,-0.083 0.222,-0.083C0.235,-0.083 0.247,-0.084 0.259,-0.087C0.271,-0.089 0.283,-0.093 0.297,-0.098L0.297,-0.012C0.285,-0.006 0.27,-0.001 0.25,0.003C0.231,0.008 0.211,0.01 0.19,0.01Z" style="fill:rgb(10,27,61);fill-rule:nonzero;"/>
                </g>
                <g transform="matrix(200,0,0,200,2529.61,1048.11)">
                    <path d="M0.251,0.01C0.21,0.01 0.174,0.002 0.143,-0.014C0.113,-0.03 0.089,-0.053 0.072,-0.084C0.055,-0.114 0.047,-0.152 0.047,-0.197C0.047,-0.241 0.053,-0.284 0.066,-0.326C0.079,-0.369 0.097,-0.407 0.122,-0.44C0.147,-0.474 0.177,-0.501 0.212,-0.521C0.248,-0.541 0.288,-0.551 0.333,-0.551C0.389,-0.551 0.43,-0.538 0.458,-0.513C0.486,-0.488 0.5,-0.455 0.5,-0.414C0.5,-0.386 0.494,-0.361 0.481,-0.338C0.468,-0.315 0.449,-0.295 0.423,-0.278C0.397,-0.261 0.364,-0.248 0.325,-0.239C0.285,-0.23 0.239,-0.226 0.185,-0.226L0.164,-0.226C0.163,-0.221 0.163,-0.216 0.162,-0.211C0.162,-0.206 0.162,-0.201 0.162,-0.196C0.162,-0.16 0.171,-0.131 0.19,-0.11C0.209,-0.09 0.237,-0.079 0.273,-0.079C0.3,-0.079 0.325,-0.083 0.349,-0.09C0.372,-0.097 0.398,-0.107 0.426,-0.12L0.426,-0.03C0.4,-0.017 0.373,-0.008 0.346,-0.001C0.319,0.006 0.287,0.01 0.251,0.01ZM0.177,-0.308L0.194,-0.308C0.234,-0.308 0.269,-0.312 0.298,-0.32C0.327,-0.328 0.35,-0.339 0.366,-0.354C0.382,-0.369 0.39,-0.388 0.39,-0.409C0.39,-0.426 0.384,-0.44 0.374,-0.449C0.363,-0.459 0.347,-0.464 0.326,-0.464C0.306,-0.464 0.286,-0.458 0.266,-0.445C0.246,-0.432 0.228,-0.414 0.213,-0.391C0.197,-0.368 0.185,-0.34 0.177,-0.308Z" style="fill:rgb(10,27,61);fill-rule:nonzero;"/>
                </g>
                <g transform="matrix(200,0,0,200,2635.12,1048.11)">
                    <path d="M0.021,-0L0.137,-0.542L0.229,-0.542L0.217,-0.44L0.22,-0.44C0.233,-0.459 0.248,-0.477 0.266,-0.494C0.283,-0.511 0.302,-0.525 0.324,-0.536C0.346,-0.547 0.371,-0.552 0.398,-0.552C0.428,-0.552 0.454,-0.546 0.474,-0.534C0.495,-0.523 0.511,-0.506 0.522,-0.484C0.532,-0.463 0.538,-0.437 0.538,-0.406C0.538,-0.393 0.537,-0.378 0.535,-0.363C0.533,-0.348 0.53,-0.333 0.527,-0.319L0.459,-0L0.342,-0L0.412,-0.328C0.414,-0.341 0.417,-0.353 0.418,-0.363C0.42,-0.373 0.42,-0.382 0.42,-0.391C0.42,-0.413 0.415,-0.429 0.405,-0.439C0.394,-0.45 0.378,-0.456 0.357,-0.456C0.334,-0.456 0.312,-0.447 0.29,-0.429C0.268,-0.411 0.248,-0.386 0.23,-0.352C0.212,-0.319 0.198,-0.278 0.188,-0.231L0.138,-0L0.021,-0Z" style="fill:rgb(10,27,61);fill-rule:nonzero;"/>
                </g>
                <g transform="matrix(200,0,0,200,2753.14,1048.11)">
                    <path d="M0.19,0.01C0.151,0.01 0.119,0.001 0.094,-0.017C0.07,-0.034 0.057,-0.066 0.057,-0.11C0.057,-0.119 0.058,-0.129 0.059,-0.139C0.06,-0.15 0.062,-0.161 0.064,-0.172L0.124,-0.454L0.046,-0.454L0.057,-0.508L0.149,-0.546L0.21,-0.66L0.282,-0.66L0.257,-0.541L0.395,-0.541L0.376,-0.454L0.239,-0.454L0.179,-0.172C0.177,-0.165 0.176,-0.158 0.175,-0.15C0.173,-0.142 0.173,-0.136 0.173,-0.129C0.173,-0.115 0.177,-0.103 0.185,-0.095C0.193,-0.087 0.205,-0.083 0.222,-0.083C0.235,-0.083 0.247,-0.084 0.259,-0.087C0.271,-0.089 0.283,-0.093 0.297,-0.098L0.297,-0.012C0.285,-0.006 0.27,-0.001 0.25,0.003C0.231,0.008 0.211,0.01 0.19,0.01Z" style="fill:rgb(10,27,61);fill-rule:nonzero;"/>
                </g>
                <g transform="matrix(200,0,0,200,2827.12,1048.11)">
                    <path d="M0.079,0.013C0.057,0.013 0.042,0.008 0.032,-0.004C0.022,-0.015 0.017,-0.029 0.017,-0.046C0.017,-0.068 0.023,-0.088 0.037,-0.106C0.05,-0.124 0.072,-0.133 0.103,-0.133C0.12,-0.133 0.135,-0.128 0.146,-0.118C0.157,-0.107 0.162,-0.092 0.162,-0.073C0.162,-0.05 0.155,-0.029 0.14,-0.012C0.126,0.005 0.105,0.013 0.079,0.013Z" style="fill:rgb(10,27,61);fill-rule:nonzero;"/>
                </g>
                <g transform="matrix(200,0,0,200,2880.73,1048.11)">
                </g>
            </g>
        </g>
    </g>
    <g id="tagline-dark" serif:id="tagline dark" transform="matrix(0.930444,0,0,0.0796665,3830.97,1300.08)">
        <rect x="0" y="0" width="2550" height="3300" style="fill:none;"/>
        <g transform="matrix(1.07476,0,0,12.5523,-555.198,-10569.4)">
            <g>
                <g transform="matrix(200,0,0,200,557.877,1048.11)">
                    <path d="M-0.058,-0L0.324,-0.714L0.459,-0.714L0.54,-0L0.427,-0L0.406,-0.199L0.168,-0.199L0.065,-0L-0.058,-0ZM0.218,-0.299L0.399,-0.299L0.383,-0.474C0.381,-0.496 0.379,-0.519 0.377,-0.544C0.375,-0.568 0.374,-0.591 0.374,-0.613L0.372,-0.613C0.363,-0.591 0.354,-0.57 0.343,-0.547C0.332,-0.524 0.321,-0.501 0.309,-0.477L0.218,-0.299Z" style="fill:rgb(0,224,255);fill-rule:nonzero;"/>
                </g>
                <g transform="matrix(200,0,0,200,676.725,1048.11)">
                    <path d="M0.247,0.01C0.208,0.01 0.174,0.003 0.144,-0.012C0.113,-0.026 0.09,-0.048 0.072,-0.078C0.055,-0.107 0.046,-0.145 0.046,-0.191C0.046,-0.229 0.05,-0.267 0.059,-0.302C0.067,-0.338 0.079,-0.371 0.095,-0.401C0.111,-0.431 0.13,-0.457 0.154,-0.48C0.177,-0.502 0.203,-0.519 0.233,-0.532C0.262,-0.544 0.295,-0.551 0.331,-0.551C0.359,-0.551 0.385,-0.548 0.409,-0.543C0.434,-0.537 0.456,-0.53 0.477,-0.52L0.443,-0.43C0.427,-0.437 0.411,-0.443 0.393,-0.449C0.375,-0.454 0.356,-0.457 0.334,-0.457C0.308,-0.457 0.284,-0.45 0.263,-0.436C0.242,-0.421 0.224,-0.402 0.209,-0.378C0.194,-0.353 0.182,-0.325 0.174,-0.294C0.166,-0.263 0.162,-0.231 0.162,-0.197C0.162,-0.173 0.166,-0.153 0.175,-0.136C0.183,-0.119 0.195,-0.106 0.21,-0.097C0.226,-0.088 0.244,-0.083 0.266,-0.083C0.29,-0.083 0.313,-0.087 0.334,-0.094C0.355,-0.101 0.376,-0.11 0.397,-0.12L0.397,-0.025C0.377,-0.015 0.355,-0.006 0.33,0C0.305,0.007 0.278,0.01 0.247,0.01Z" style="fill:rgb(0,224,255);fill-rule:nonzero;"/>
                </g>
                <g transform="matrix(200,0,0,200,770.329,1048.11)">
                    <path d="M0.247,0.01C0.208,0.01 0.174,0.003 0.144,-0.012C0.113,-0.026 0.09,-0.048 0.072,-0.078C0.055,-0.107 0.046,-0.145 0.046,-0.191C0.046,-0.229 0.05,-0.267 0.059,-0.302C0.067,-0.338 0.079,-0.371 0.095,-0.401C0.111,-0.431 0.13,-0.457 0.154,-0.48C0.177,-0.502 0.203,-0.519 0.233,-0.532C0.262,-0.544 0.295,-0.551 0.331,-0.551C0.359,-0.551 0.385,-0.548 0.409,-0.543C0.434,-0.537 0.456,-0.53 0.477,-0.52L0.443,-0.43C0.427,-0.437 0.411,-0.443 0.393,-0.449C0.375,-0.454 0.356,-0.457 0.334,-0.457C0.308,-0.457 0.284,-0.45 0.263,-0.436C0.242,-0.421 0.224,-0.402 0.209,-0.378C0.194,-0.353 0.182,-0.325 0.174,-0.294C0.166,-0.263 0.162,-0.231 0.162,-0.197C0.162,-0.173 0.166,-0.153 0.175,-0.136C0.183,-0.119 0.195,-0.106 0.21,-0.097C0.226,-0.088 0.244,-0.083 0.266,-0.083C0.29,-0.083 0.313,-0.087 0.334,-0.094C0.355,-0.101 0.376,-0.11 0.397,-0.12L0.397,-0.025C0.377,-0.015 0.355,-0.006 0.33,0C0.305,0.007 0.278,0.01 0.247,0.01Z" style="fill:rgb(0,224,255);fill-rule:nonzero;"/>
                </g>
                <g transform="matrix(200,0,0,200,863.932,1048.11)">
                    <path d="M0.251,0.01C0.21,0.01 0.174,0.002 0.143,-0.014C0.113,-0.03 0.089,-0.053 0.072,-0.084C0.055,-0.114 0.047,-0.152 0.047,-0.197C0.047,-0.241 0.053,-0.284 0.066,-0.326C0.079,-0.369 0.097,-0.407 0.122,-0.44C0.147,-0.474 0.177,-0.501 0.212,-0.521C0.248,-0.541 0.288,-0.551 0.333,-0.551C0.389,-0.551 0.43,-0.538 0.458,-0.513C0.486,-0.488 0.5,-0.455 0.5,-0.414C0.5,-0.386 0.494,-0.361 0.481,-0.338C0.468,-0.315 0.449,-0.295 0.423,-0.278C0.397,-0.261 0.364,-0.248 0.325,-0.239C0.285,-0.23 0.239,-0.226 0.185,-0.226L0.164,-0.226C0.163,-0.221 0.163,-0.216 0.162,-0.211C0.162,-0.206 0.162,-0.201 0.162,-0.196C0.162,-0.16 0.171,-0.131 0.19,-0.11C0.209,-0.09 0.237,-0.079 0.273,-0.079C0.3,-0.079 0.325,-0.083 0.349,-0.09C0.372,-0.097 0.398,-0.107 0.426,-0.12L0.426,-0.03C0.4,-0.017 0.373,-0.008 0.346,-0.001C0.319,0.006 0.287,0.01 0.251,0.01ZM0.177,-0.308L0.194,-0.308C0.234,-0.308 0.269,-0.312 0.298,-0.32C0.327,-0.328 0.35,-0.339 0.366,-0.354C0.382,-0.369 0.39,-0.388 0.39,-0.409C0.39,-0.426 0.384,-0.44 0.374,-0.449C0.363,-0.459 0.347,-0.464 0.326,-0.464C0.306,-0.464 0.286,-0.458 0.266,-0.445C0.246,-0.432 0.228,-0.414 0.213,-0.391C0.197,-0.368 0.185,-0.34 0.177,-0.308Z" style="fill:rgb(0,224,255);fill-rule:nonzero;"/>
                </g>
                <g transform="matrix(200,0,0,200,969.45,1048.11)">
                    <path d="M0.023,-0L0.184,-0.76L0.298,-0.76L0.137,-0L0.023,-0Z" style="fill:rgb(0,224,255);fill-rule:nonzero;"/>
                </g>
                <g transform="matrix(200,0,0,200,1024.38,1048.11)">
                    <path d="M0.251,0.01C0.21,0.01 0.174,0.002 0.143,-0.014C0.113,-0.03 0.089,-0.053 0.072,-0.084C0.055,-0.114 0.047,-0.152 0.047,-0.197C0.047,-0.241 0.053,-0.284 0.066,-0.326C0.079,-0.369 0.097,-0.407 0.122,-0.44C0.147,-0.474 0.177,-0.501 0.212,-0.521C0.248,-0.541 0.288,-0.551 0.333,-0.551C0.389,-0.551 0.43,-0.538 0.458,-0.513C0.486,-0.488 0.5,-0.455 0.5,-0.414C0.5,-0.386 0.494,-0.361 0.481,-0.338C0.468,-0.315 0.449,-0.295 0.423,-0.278C0.397,-0.261 0.364,-0.248 0.325,-0.239C0.285,-0.23 0.239,-0.226 0.185,-0.226L0.164,-0.226C0.163,-0.221 0.163,-0.216 0.162,-0.211C0.162,-0.206 0.162,-0.201 0.162,-0.196C0.162,-0.16 0.171,-0.131 0.19,-0.11C0.209,-0.09 0.237,-0.079 0.273,-0.079C0.3,-0.079 0.325,-0.083 0.349,-0.09C0.372,-0.097 0.398,-0.107 0.426,-0.12L0.426,-0.03C0.4,-0.017 0.373,-0.008 0.346,-0.001C0.319,0.006 0.287,0.01 0.251,0.01ZM0.177,-0.308L0.194,-0.308C0.234,-0.308 0.269,-0.312 0.298,-0.32C0.327,-0.328 0.35,-0.339 0.366,-0.354C0.382,-0.369 0.39,-0.388 0.39,-0.409C0.39,-0.426 0.384,-0.44 0.374,-0.449C0.363,-0.459 0.347,-0.464 0.326,-0.464C0.306,-0.464 0.286,-0.458 0.266,-0.445C0.246,-0.432 0.228,-0.414 0.213,-0.391C0.197,-0.368 0.185,-0.34 0.177,-0.308Z" style="fill:rgb(0,224,255);fill-rule:nonzero;"/>
                </g>
                <g transform="matrix(200,0,0,200,1129.9,1048.11)">
                    <path d="M0.023,-0L0.138,-0.541L0.227,-0.541L0.216,-0.438L0.221,-0.438C0.235,-0.459 0.25,-0.478 0.267,-0.495C0.283,-0.512 0.302,-0.526 0.322,-0.536C0.342,-0.546 0.364,-0.551 0.389,-0.551C0.398,-0.551 0.407,-0.55 0.417,-0.549C0.426,-0.548 0.434,-0.546 0.442,-0.544L0.417,-0.437C0.41,-0.439 0.402,-0.441 0.394,-0.442C0.385,-0.443 0.376,-0.444 0.367,-0.444C0.345,-0.444 0.325,-0.439 0.306,-0.429C0.287,-0.419 0.27,-0.405 0.255,-0.387C0.239,-0.369 0.226,-0.348 0.215,-0.324C0.204,-0.3 0.195,-0.274 0.189,-0.246L0.137,-0L0.023,-0Z" style="fill:rgb(0,224,255);fill-rule:nonzero;"/>
                </g>
                <g transform="matrix(200,0,0,200,1211.49,1048.11)">
                    <path d="M0.196,0.01C0.168,0.01 0.143,0.003 0.12,-0.01C0.098,-0.024 0.08,-0.045 0.066,-0.073C0.053,-0.101 0.046,-0.137 0.046,-0.181C0.046,-0.218 0.05,-0.255 0.058,-0.291C0.066,-0.327 0.078,-0.36 0.092,-0.391C0.107,-0.423 0.125,-0.45 0.146,-0.474C0.168,-0.498 0.192,-0.517 0.218,-0.53C0.245,-0.544 0.274,-0.551 0.304,-0.551C0.328,-0.551 0.349,-0.547 0.366,-0.539C0.384,-0.531 0.398,-0.52 0.411,-0.507C0.423,-0.493 0.432,-0.478 0.44,-0.462L0.444,-0.462L0.474,-0.541L0.561,-0.541L0.447,-0L0.359,-0L0.37,-0.087L0.366,-0.087C0.352,-0.069 0.337,-0.053 0.32,-0.039C0.302,-0.024 0.284,-0.012 0.263,-0.003C0.243,0.005 0.22,0.01 0.196,0.01ZM0.238,-0.083C0.26,-0.083 0.282,-0.092 0.303,-0.109C0.324,-0.126 0.342,-0.149 0.359,-0.177C0.375,-0.206 0.386,-0.237 0.394,-0.271C0.398,-0.287 0.401,-0.302 0.402,-0.317C0.404,-0.331 0.405,-0.346 0.405,-0.361C0.405,-0.389 0.397,-0.412 0.382,-0.43C0.367,-0.448 0.347,-0.457 0.321,-0.457C0.303,-0.457 0.286,-0.452 0.27,-0.442C0.254,-0.432 0.239,-0.418 0.226,-0.4C0.213,-0.382 0.202,-0.362 0.192,-0.339C0.182,-0.316 0.175,-0.291 0.17,-0.264C0.165,-0.238 0.162,-0.211 0.162,-0.183C0.162,-0.15 0.169,-0.126 0.182,-0.109C0.195,-0.092 0.214,-0.083 0.238,-0.083Z" style="fill:rgb(0,224,255);fill-rule:nonzero;"/>
                </g>
                <g transform="matrix(200,0,0,200,1327.46,1048.11)">
                    <path d="M0.19,0.01C0.151,0.01 0.119,0.001 0.094,-0.017C0.07,-0.034 0.057,-0.066 0.057,-0.11C0.057,-0.119 0.058,-0.129 0.059,-0.139C0.06,-0.15 0.062,-0.161 0.064,-0.172L0.124,-0.454L0.046,-0.454L0.057,-0.508L0.149,-0.546L0.21,-0.66L0.282,-0.66L0.257,-0.541L0.395,-0.541L0.376,-0.454L0.239,-0.454L0.179,-0.172C0.177,-0.165 0.176,-0.158 0.175,-0.15C0.173,-0.142 0.173,-0.136 0.173,-0.129C0.173,-0.115 0.177,-0.103 0.185,-0.095C0.193,-0.087 0.205,-0.083 0.222,-0.083C0.235,-0.083 0.247,-0.084 0.259,-0.087C0.271,-0.089 0.283,-0.093 0.297,-0.098L0.297,-0.012C0.285,-0.006 0.27,-0.001 0.25,0.003C0.231,0.008 0.211,0.01 0.19,0.01Z" style="fill:rgb(0,224,255);fill-rule:nonzero;"/>
                </g>
                <g transform="matrix(200,0,0,200,1401.43,1048.11)">
                    <path d="M0.251,0.01C0.21,0.01 0.174,0.002 0.143,-0.014C0.113,-0.03 0.089,-0.053 0.072,-0.084C0.055,-0.114 0.047,-0.152 0.047,-0.197C0.047,-0.241 0.053,-0.284 0.066,-0.326C0.079,-0.369 0.097,-0.407 0.122,-0.44C0.147,-0.474 0.177,-0.501 0.212,-0.521C0.248,-0.541 0.288,-0.551 0.333,-0.551C0.389,-0.551 0.43,-0.538 0.458,-0.513C0.486,-0.488 0.5,-0.455 0.5,-0.414C0.5,-0.386 0.494,-0.361 0.481,-0.338C0.468,-0.315 0.449,-0.295 0.423,-0.278C0.397,-0.261 0.364,-0.248 0.325,-0.239C0.285,-0.23 0.239,-0.226 0.185,-0.226L0.164,-0.226C0.163,-0.221 0.163,-0.216 0.162,-0.211C0.162,-0.206 0.162,-0.201 0.162,-0.196C0.162,-0.16 0.171,-0.131 0.19,-0.11C0.209,-0.09 0.237,-0.079 0.273,-0.079C0.3,-0.079 0.325,-0.083 0.349,-0.09C0.372,-0.097 0.398,-0.107 0.426,-0.12L0.426,-0.03C0.4,-0.017 0.373,-0.008 0.346,-0.001C0.319,0.006 0.287,0.01 0.251,0.01ZM0.177,-0.308L0.194,-0.308C0.234,-0.308 0.269,-0.312 0.298,-0.32C0.327,-0.328 0.35,-0.339 0.366,-0.354C0.382,-0.369 0.39,-0.388 0.39,-0.409C0.39,-0.426 0.384,-0.44 0.374,-0.449C0.363,-0.459 0.347,-0.464 0.326,-0.464C0.306,-0.464 0.286,-0.458 0.266,-0.445C0.246,-0.432 0.228,-0.414 0.213,-0.391C0.197,-0.368 0.185,-0.34 0.177,-0.308Z" style="fill:rgb(0,224,255);fill-rule:nonzero;"/>
                </g>
                <g transform="matrix(200,0,0,200,1506.95,1048.11)">
                </g>
                <g transform="matrix(200,0,0,200,1558.9,1048.11)">
                    <path d="M0.034,-0L0.185,-0.714L0.301,-0.714L0.239,-0.422L0.517,-0.422L0.579,-0.714L0.694,-0.714L0.543,-0L0.428,-0L0.496,-0.322L0.218,-0.322L0.15,-0L0.034,-0Z" style="fill:rgb(0,224,255);fill-rule:nonzero;"/>
                </g>
                <g transform="matrix(200,0,0,200,1696.94,1048.11)">
                    <path d="M0.191,0.01C0.162,0.01 0.137,0.004 0.117,-0.007C0.096,-0.019 0.081,-0.035 0.07,-0.057C0.06,-0.079 0.055,-0.104 0.055,-0.135C0.055,-0.148 0.056,-0.163 0.058,-0.179C0.06,-0.195 0.062,-0.212 0.066,-0.229L0.132,-0.541L0.247,-0.541L0.177,-0.212C0.174,-0.2 0.172,-0.188 0.171,-0.178C0.169,-0.168 0.169,-0.158 0.169,-0.15C0.169,-0.128 0.174,-0.112 0.184,-0.1C0.195,-0.089 0.211,-0.083 0.232,-0.083C0.256,-0.083 0.279,-0.092 0.301,-0.11C0.323,-0.128 0.344,-0.154 0.362,-0.188C0.38,-0.221 0.394,-0.262 0.404,-0.31L0.453,-0.541L0.566,-0.541L0.452,-0L0.362,-0L0.374,-0.102L0.369,-0.102C0.356,-0.083 0.341,-0.065 0.324,-0.048C0.306,-0.031 0.287,-0.017 0.265,-0.006C0.243,0.004 0.219,0.01 0.191,0.01Z" style="fill:rgb(0,224,255);fill-rule:nonzero;"/>
                </g>
                <g transform="matrix(200,0,0,200,1814.96,1048.11)">
                    <path d="M0.023,-0L0.138,-0.541L0.227,-0.541L0.216,-0.438L0.22,-0.438C0.233,-0.458 0.248,-0.476 0.265,-0.493C0.282,-0.51 0.301,-0.524 0.322,-0.534C0.343,-0.545 0.367,-0.551 0.394,-0.551C0.432,-0.551 0.46,-0.54 0.481,-0.519C0.501,-0.499 0.513,-0.47 0.518,-0.434L0.522,-0.434C0.535,-0.455 0.551,-0.474 0.568,-0.492C0.586,-0.509 0.606,-0.523 0.628,-0.534C0.651,-0.545 0.675,-0.551 0.702,-0.551C0.745,-0.551 0.778,-0.538 0.801,-0.512C0.823,-0.487 0.834,-0.452 0.834,-0.406C0.834,-0.393 0.834,-0.379 0.832,-0.364C0.83,-0.35 0.827,-0.335 0.823,-0.32L0.756,-0L0.642,-0L0.712,-0.328C0.714,-0.341 0.717,-0.352 0.718,-0.363C0.719,-0.373 0.72,-0.382 0.72,-0.391C0.72,-0.413 0.715,-0.429 0.705,-0.44C0.695,-0.451 0.68,-0.457 0.66,-0.457C0.643,-0.457 0.626,-0.452 0.61,-0.442C0.593,-0.432 0.578,-0.417 0.563,-0.398C0.549,-0.379 0.536,-0.356 0.524,-0.328C0.513,-0.301 0.503,-0.271 0.496,-0.236L0.447,-0L0.333,-0L0.402,-0.327C0.405,-0.34 0.407,-0.352 0.408,-0.362C0.409,-0.373 0.41,-0.382 0.41,-0.39C0.41,-0.411 0.405,-0.428 0.396,-0.44C0.387,-0.451 0.372,-0.457 0.352,-0.457C0.335,-0.457 0.318,-0.452 0.302,-0.442C0.285,-0.432 0.27,-0.417 0.255,-0.397C0.24,-0.378 0.227,-0.354 0.215,-0.326C0.203,-0.299 0.194,-0.267 0.186,-0.231L0.137,-0L0.023,-0Z" style="fill:rgb(0,224,255);fill-rule:nonzero;"/>
                </g>
                <g transform="matrix(200,0,0,200,1992.59,1048.11)">
                    <path d="M0.196,0.01C0.168,0.01 0.143,0.003 0.12,-0.01C0.098,-0.024 0.08,-0.045 0.066,-0.073C0.053,-0.101 0.046,-0.137 0.046,-0.181C0.046,-0.218 0.05,-0.255 0.058,-0.291C0.066,-0.327 0.078,-0.36 0.092,-0.391C0.107,-0.423 0.125,-0.45 0.146,-0.474C0.168,-0.498 0.192,-0.517 0.218,-0.53C0.245,-0.544 0.274,-0.551 0.304,-0.551C0.328,-0.551 0.349,-0.547 0.366,-0.539C0.384,-0.531 0.398,-0.52 0.411,-0.507C0.423,-0.493 0.432,-0.478 0.44,-0.462L0.444,-0.462L0.474,-0.541L0.561,-0.541L0.447,-0L0.359,-0L0.37,-0.087L0.366,-0.087C0.352,-0.069 0.337,-0.053 0.32,-0.039C0.302,-0.024 0.284,-0.012 0.263,-0.003C0.243,0.005 0.22,0.01 0.196,0.01ZM0.238,-0.083C0.26,-0.083 0.282,-0.092 0.303,-0.109C0.324,-0.126 0.342,-0.149 0.359,-0.177C0.375,-0.206 0.386,-0.237 0.394,-0.271C0.398,-0.287 0.401,-0.302 0.402,-0.317C0.404,-0.331 0.405,-0.346 0.405,-0.361C0.405,-0.389 0.397,-0.412 0.382,-0.43C0.367,-0.448 0.347,-0.457 0.321,-0.457C0.303,-0.457 0.286,-0.452 0.27,-0.442C0.254,-0.432 0.239,-0.418 0.226,-0.4C0.213,-0.382 0.202,-0.362 0.192,-0.339C0.182,-0.316 0.175,-0.291 0.17,-0.264C0.165,-0.238 0.162,-0.211 0.162,-0.183C0.162,-0.15 0.169,-0.126 0.182,-0.109C0.195,-0.092 0.214,-0.083 0.238,-0.083Z" style="fill:rgb(0,224,255);fill-rule:nonzero;"/>
                </g>
                <g transform="matrix(200,0,0,200,2108.56,1048.11)">
                    <path d="M0.021,-0L0.137,-0.542L0.229,-0.542L0.217,-0.44L0.22,-0.44C0.233,-0.459 0.248,-0.477 0.266,-0.494C0.283,-0.511 0.302,-0.525 0.324,-0.536C0.346,-0.547 0.371,-0.552 0.398,-0.552C0.428,-0.552 0.454,-0.546 0.474,-0.534C0.495,-0.523 0.511,-0.506 0.522,-0.484C0.532,-0.463 0.538,-0.437 0.538,-0.406C0.538,-0.393 0.537,-0.378 0.535,-0.363C0.533,-0.348 0.53,-0.333 0.527,-0.319L0.459,-0L0.342,-0L0.412,-0.328C0.414,-0.341 0.417,-0.353 0.418,-0.363C0.42,-0.373 0.42,-0.382 0.42,-0.391C0.42,-0.413 0.415,-0.429 0.405,-0.439C0.394,-0.45 0.378,-0.456 0.357,-0.456C0.334,-0.456 0.312,-0.447 0.29,-0.429C0.268,-0.411 0.248,-0.386 0.23,-0.352C0.212,-0.319 0.198,-0.278 0.188,-0.231L0.138,-0L0.021,-0Z" style="fill:rgb(0,224,255);fill-rule:nonzero;"/>
                </g>
                <g transform="matrix(200,0,0,200,2226.58,1048.11)">
                </g>
                <g transform="matrix(200,0,0,200,2278.53,1048.11)">
                    <path d="M0.033,-0L0.185,-0.714L0.301,-0.714L0.148,-0L0.033,-0Z" style="fill:rgb(0,224,255);fill-rule:nonzero;"/>
                </g>
                <g transform="matrix(200,0,0,200,2337.61,1048.11)">
                    <path d="M0.021,-0L0.137,-0.542L0.229,-0.542L0.217,-0.44L0.22,-0.44C0.233,-0.459 0.248,-0.477 0.266,-0.494C0.283,-0.511 0.302,-0.525 0.324,-0.536C0.346,-0.547 0.371,-0.552 0.398,-0.552C0.428,-0.552 0.454,-0.546 0.474,-0.534C0.495,-0.523 0.511,-0.506 0.522,-0.484C0.532,-0.463 0.538,-0.437 0.538,-0.406C0.538,-0.393 0.537,-0.378 0.535,-0.363C0.533,-0.348 0.53,-0.333 0.527,-0.319L0.459,-0L0.342,-0L0.412,-0.328C0.414,-0.341 0.417,-0.353 0.418,-0.363C0.42,-0.373 0.42,-0.382 0.42,-0.391C0.42,-0.413 0.415,-0.429 0.405,-0.439C0.394,-0.45 0.378,-0.456 0.357,-0.456C0.334,-0.456 0.312,-0.447 0.29,-0.429C0.268,-0.411 0.248,-0.386 0.23,-0.352C0.212,-0.319 0.198,-0.278 0.188,-0.231L0.138,-0L0.021,-0Z" style="fill:rgb(0,224,255);fill-rule:nonzero;"/>
                </g>
                <g transform="matrix(200,0,0,200,2455.63,1048.11)">
                    <path d="M0.19,0.01C0.151,0.01 0.119,0.001 0.094,-0.017C0.07,-0.034 0.057,-0.066 0.057,-0.11C0.057,-0.119 0.058,-0.129 0.059,-0.139C0.06,-0.15 0.062,-0.161 0.064,-0.172L0.124,-0.454L0.046,-0.454L0.057,-0.508L0.149,-0.546L0.21,-0.66L0.282,-0.66L0.257,-0.541L0.395,-0.541L0.376,-0.454L0.239,-0.454L0.179,-0.172C0.177,-0.165 0.176,-0.158 0.175,-0.15C0.173,-0.142 0.173,-0.136 0.173,-0.129C0.173,-0.115 0.177,-0.103 0.185,-0.095C0.193,-0.087 0.205,-0.083 0.222,-0.083C0.235,-0.083 0.247,-0.084 0.259,-0.087C0.271,-0.089 0.283,-0.093 0.297,-0.098L0.297,-0.012C0.285,-0.006 0.27,-0.001 0.25,0.003C0.231,0.008 0.211,0.01 0.19,0.01Z" style="fill:rgb(0,224,255);fill-rule:nonzero;"/>
                </g>
                <g transform="matrix(200,0,0,200,2529.61,1048.11)">
                    <path d="M0.251,0.01C0.21,0.01 0.174,0.002 0.143,-0.014C0.113,-0.03 0.089,-0.053 0.072,-0.084C0.055,-0.114 0.047,-0.152 0.047,-0.197C0.047,-0.241 0.053,-0.284 0.066,-0.326C0.079,-0.369 0.097,-0.407 0.122,-0.44C0.147,-0.474 0.177,-0.501 0.212,-0.521C0.248,-0.541 0.288,-0.551 0.333,-0.551C0.389,-0.551 0.43,-0.538 0.458,-0.513C0.486,-0.488 0.5,-0.455 0.5,-0.414C0.5,-0.386 0.494,-0.361 0.481,-0.338C0.468,-0.315 0.449,-0.295 0.423,-0.278C0.397,-0.261 0.364,-0.248 0.325,-0.239C0.285,-0.23 0.239,-0.226 0.185,-0.226L0.164,-0.226C0.163,-0.221 0.163,-0.216 0.162,-0.211C0.162,-0.206 0.162,-0.201 0.162,-0.196C0.162,-0.16 0.171,-0.131 0.19,-0.11C0.209,-0.09 0.237,-0.079 0.273,-0.079C0.3,-0.079 0.325,-0.083 0.349,-0.09C0.372,-0.097 0.398,-0.107 0.426,-0.12L0.426,-0.03C0.4,-0.017 0.373,-0.008 0.346,-0.001C0.319,0.006 0.287,0.01 0.251,0.01ZM0.177,-0.308L0.194,-0.308C0.234,-0.308 0.269,-0.312 0.298,-0.32C0.327,-0.328 0.35,-0.339 0.366,-0.354C0.382,-0.369 0.39,-0.388 0.39,-0.409C0.39,-0.426 0.384,-0.44 0.374,-0.449C0.363,-0.459 0.347,-0.464 0.326,-0.464C0.306,-0.464 0.286,-0.458 0.266,-0.445C0.246,-0.432 0.228,-0.414 0.213,-0.391C0.197,-0.368 0.185,-0.34 0.177,-0.308Z" style="fill:rgb(0,224,255);fill-rule:nonzero;"/>
                </g>
                <g transform="matrix(200,0,0,200,2635.12,1048.11)">
                    <path d="M0.021,-0L0.137,-0.542L0.229,-0.542L0.217,-0.44L0.22,-0.44C0.233,-0.459 0.248,-0.477 0.266,-0.494C0.283,-0.511 0.302,-0.525 0.324,-0.536C0.346,-0.547 0.371,-0.552 0.398,-0.552C0.428,-0.552 0.454,-0.546 0.474,-0.534C0.495,-0.523 0.511,-0.506 0.522,-0.484C0.532,-0.463 0.538,-0.437 0.538,-0.406C0.538,-0.393 0.537,-0.378 0.535,-0.363C0.533,-0.348 0.53,-0.333 0.527,-0.319L0.459,-0L0.342,-0L0.412,-0.328C0.414,-0.341 0.417,-0.353 0.418,-0.363C0.42,-0.373 0.42,-0.382 0.42,-0.391C0.42,-0.413 0.415,-0.429 0.405,-0.439C0.394,-0.45 0.378,-0.456 0.357,-0.456C0.334,-0.456 0.312,-0.447 0.29,-0.429C0.268,-0.411 0.248,-0.386 0.23,-0.352C0.212,-0.319 0.198,-0.278 0.188,-0.231L0.138,-0L0.021,-0Z" style="fill:rgb(0,224,255);fill-rule:nonzero;"/>
                </g>
                <g transform="matrix(200,0,0,200,2753.14,1048.11)">
                    <path d="M0.19,0.01C0.151,0.01 0.119,0.001 0.094,-0.017C0.07,-0.034 0.057,-0.066 0.057,-0.11C0.057,-0.119 0.058,-0.129 0.059,-0.139C0.06,-0.15 0.062,-0.161 0.064,-0.172L0.124,-0.454L0.046,-0.454L0.057,-0.508L0.149,-0.546L0.21,-0.66L0.282,-0.66L0.257,-0.541L0.395,-0.541L0.376,-0.454L0.239,-0.454L0.179,-0.172C0.177,-0.165 0.176,-0.158 0.175,-0.15C0.173,-0.142 0.173,-0.136 0.173,-0.129C0.173,-0.115 0.177,-0.103 0.185,-0.095C0.193,-0.087 0.205,-0.083 0.222,-0.083C0.235,-0.083 0.247,-0.084 0.259,-0.087C0.271,-0.089 0.283,-0.093 0.297,-0.098L0.297,-0.012C0.285,-0.006 0.27,-0.001 0.25,0.003C0.231,0.008 0.211,0.01 0.19,0.01Z" style="fill:rgb(0,224,255);fill-rule:nonzero;"/>
                </g>
                <g transform="matrix(200,0,0,200,2827.12,1048.11)">
                    <path d="M0.079,0.013C0.057,0.013 0.042,0.008 0.032,-0.004C0.022,-0.015 0.017,-0.029 0.017,-0.046C0.017,-0.068 0.023,-0.088 0.037,-0.106C0.05,-0.124 0.072,-0.133 0.103,-0.133C0.12,-0.133 0.135,-0.128 0.146,-0.118C0.157,-0.107 0.162,-0.092 0.162,-0.073C0.162,-0.05 0.155,-0.029 0.14,-0.012C0.126,0.005 0.105,0.013 0.079,0.013Z" style="fill:rgb(0,224,255);fill-rule:nonzero;"/>
                </g>
                <g transform="matrix(200,0,0,200,2880.73,1048.11)">
                </g>
            </g>
        </g>
    </g>
    <g id="icon" transform="matrix(0.235294,0,0,0.181818,0,1346.42)">
        <rect x="0" y="0" width="2550" height="3300" style="fill:none;"/>
        <g transform="matrix(2.18446,0,0,2.82695,-1524.88,-2377.31)">
            <g>
                <g transform="matrix(4.16667,0,0,4.16667,1107.99,1229.58)">
                    <path d="M0,91.022C2.041,89.259 4.128,90.433 5.724,92.207C7.089,93.724 16.674,109.986 16.489,111.055C1.259,134.651 -21.664,154.104 -51.694,150.62C-54.126,150.338 -62.367,148.343 -63.141,146.067L-63.363,-46.834C-62.617,-52.971 -46.214,-56.6 -40.68,-57.151C18.887,-63.082 47.8,19.45 76.477,58.449C82.848,67.113 101.367,84.645 101.615,94.332C101.844,103.253 94.039,104.577 87.011,101.909C52.249,88.714 23.371,-1.145 -16.636,-23.438C-24.618,-27.886 -39.918,-34.763 -39.337,-19.808C-36.864,23.211 -42.502,69.661 -39.346,112.272C-39.179,114.52 -38.898,120.837 -36.669,121.614C-28.918,124.317 -15.04,110.613 -10.328,105.201C-7.22,101.63 -2.694,93.349 0,91.022" style="fill:rgb(10,27,61);fill-rule:nonzero;"/>
                </g>
                <g transform="matrix(4.16667,0,0,4.16667,1619.23,1793.56)">
                    <path d="M0,-165.628C-17.241,-165.639 -31.625,-154.675 -40.629,-140.757C-45.282,-133.564 -47.007,-125.094 -52.484,-118.837C-56.709,-118.482 -65.497,-138.624 -68.65,-142.134C-54.248,-174.033 -26.539,-196.725 10.22,-192.348C13.323,-191.979 22.879,-190.029 23.808,-186.936L24.048,-39.08C24.914,13.791 -24.15,31.097 -64.328,1.2C-82.466,-12.296 -96.076,-35.219 -107.801,-54.327C-117.225,-69.686 -129.478,-88.896 -137.522,-104.606C-141.037,-111.472 -146.958,-122.754 -141.879,-130.004C-137.538,-136.201 -131.664,-129.167 -128.488,-125.64C-101.93,-96.143 -72.193,-22.023 -32.818,-11.31C-20.298,-7.903 -4.588,-11.247 -1.235,-25.363C-1.03,-26.225 0,-32.66 0,-33.128L0,-165.628Z" style="fill:rgb(10,27,61);fill-rule:nonzero;"/>
                </g>
            </g>
        </g>
    </g>
    <g id="darkmode-icon" serif:id="darkmode icon" transform="matrix(0.235294,0,0,0.181818,3181.86,1256.93)">
        <rect x="0" y="0" width="2550" height="3300" style="fill:none;"/>
        <g transform="matrix(2.18446,0,0,2.82695,-1524.88,-2377.31)">
            <g>
                <g transform="matrix(4.16667,0,0,4.16667,1107.99,1229.58)">
                    <path d="M0,91.022C2.041,89.259 4.128,90.433 5.724,92.207C7.089,93.724 16.674,109.986 16.489,111.055C1.259,134.651 -21.664,154.104 -51.694,150.62C-54.126,150.338 -62.367,148.343 -63.141,146.067L-63.363,-46.834C-62.617,-52.971 -46.214,-56.6 -40.68,-57.151C18.887,-63.082 47.8,19.45 76.477,58.449C82.848,67.113 101.367,84.645 101.615,94.332C101.844,103.253 94.039,104.577 87.011,101.909C52.249,88.714 23.371,-1.145 -16.636,-23.438C-24.618,-27.886 -39.918,-34.763 -39.337,-19.808C-36.864,23.211 -42.502,69.661 -39.346,112.272C-39.179,114.52 -38.898,120.837 -36.669,121.614C-28.918,124.317 -15.04,110.613 -10.328,105.201C-7.22,101.63 -2.694,93.349 0,91.022" style="fill:rgb(0,224,255);fill-rule:nonzero;"/>
                </g>
                <g transform="matrix(4.16667,0,0,4.16667,1619.23,1793.56)">
                    <path d="M0,-165.628C-17.241,-165.639 -31.625,-154.675 -40.629,-140.757C-45.282,-133.564 -47.007,-125.094 -52.484,-118.837C-56.709,-118.482 -65.497,-138.624 -68.65,-142.134C-54.248,-174.033 -26.539,-196.725 10.22,-192.348C13.323,-191.979 22.879,-190.029 23.808,-186.936L24.048,-39.08C24.914,13.791 -24.15,31.097 -64.328,1.2C-82.466,-12.296 -96.076,-35.219 -107.801,-54.327C-117.225,-69.686 -129.478,-88.896 -137.522,-104.606C-141.037,-111.472 -146.958,-122.754 -141.879,-130.004C-137.538,-136.201 -131.664,-129.167 -128.488,-125.64C-101.93,-96.143 -72.193,-22.023 -32.818,-11.31C-20.298,-7.903 -4.588,-11.247 -1.235,-25.363C-1.03,-26.225 0,-32.66 0,-33.128L0,-165.628Z" style="fill:rgb(0,224,255);fill-rule:nonzero;"/>
                </g>
            </g>
        </g>
    </g>
    <g id="logo-dark" serif:id="logo dark" transform="matrix(1.17647,0,0,0.363636,3194.06,0)">
        <rect x="0" y="0" width="2550" height="3300" style="fill:none;"/>
        <g transform="matrix(1,0,0,1,14.8257,0)">
            <g transform="matrix(0.85,0,0,2.75,558.853,-1628.13)">
                <g transform="matrix(1,0,0,1,-189.252,103.351)">
                    <g transform="matrix(400,0,0,400,557.877,1048.11)">
                        <path d="M0.723,-0L0.531,-0L0.22,-0.54L0.216,-0.54C0.217,-0.518 0.218,-0.495 0.219,-0.472C0.22,-0.449 0.224,-0.359 0.225,-0.336L0.225,-0L0.09,-0L0.09,-0.714L0.281,-0.714L0.591,-0.179L0.594,-0.179C0.594,-0.201 0.593,-0.223 0.592,-0.245C0.591,-0.267 0.59,-0.289 0.589,-0.311C0.588,-0.332 0.588,-0.354 0.587,-0.376L0.587,-0.714L0.723,-0.714L0.723,-0Z" style="fill:rgb(0,224,255);fill-rule:nonzero;"/>
                    </g>
                    <g transform="matrix(400,0,0,400,883.073,1048.11)">
                        <path d="M0.303,-0.556C0.354,-0.556 0.397,-0.546 0.434,-0.527C0.47,-0.508 0.498,-0.48 0.518,-0.443C0.538,-0.406 0.548,-0.361 0.548,-0.308L0.548,-0.236L0.196,-0.236C0.197,-0.194 0.21,-0.161 0.234,-0.137C0.257,-0.113 0.29,-0.101 0.332,-0.101C0.367,-0.101 0.399,-0.105 0.428,-0.112C0.457,-0.119 0.486,-0.13 0.517,-0.144L0.517,-0.029C0.49,-0.015 0.462,-0.006 0.432,0C0.403,0.007 0.367,0.01 0.325,0.01C0.271,0.01 0.222,-0 0.18,-0.021C0.138,-0.041 0.105,-0.071 0.081,-0.113C0.057,-0.154 0.045,-0.206 0.045,-0.269C0.045,-0.333 0.056,-0.386 0.077,-0.428C0.099,-0.471 0.129,-0.503 0.168,-0.524C0.207,-0.545 0.252,-0.556 0.303,-0.556ZM0.304,-0.45C0.275,-0.45 0.251,-0.441 0.232,-0.422C0.213,-0.404 0.202,-0.375 0.199,-0.335L0.408,-0.335C0.408,-0.357 0.404,-0.377 0.396,-0.394C0.389,-0.411 0.377,-0.425 0.362,-0.435C0.347,-0.445 0.328,-0.45 0.304,-0.45Z" style="fill:rgb(0,224,255);fill-rule:nonzero;"/>
                    </g>
                    <g transform="matrix(400,0,0,400,1119.4,1048.11)">
                        <path d="M0.579,-0.546L0.579,-0L0.465,-0L0.445,-0.07L0.437,-0.07C0.425,-0.051 0.411,-0.036 0.393,-0.024C0.375,-0.013 0.356,-0.004 0.335,0.001C0.314,0.007 0.292,0.01 0.269,0.01C0.23,0.01 0.196,0.003 0.167,-0.011C0.138,-0.025 0.115,-0.046 0.099,-0.076C0.083,-0.105 0.075,-0.143 0.075,-0.19L0.075,-0.546L0.224,-0.546L0.224,-0.227C0.224,-0.188 0.231,-0.159 0.245,-0.139C0.259,-0.119 0.281,-0.109 0.312,-0.109C0.342,-0.109 0.366,-0.116 0.383,-0.13C0.401,-0.143 0.413,-0.164 0.42,-0.191C0.427,-0.218 0.43,-0.25 0.43,-0.289L0.43,-0.546L0.579,-0.546Z" style="fill:rgb(0,224,255);fill-rule:nonzero;"/>
                    </g>
                    <g transform="matrix(400,0,0,400,1382.29,1048.11)">
                        <path d="M0.383,-0.556C0.39,-0.556 0.399,-0.556 0.409,-0.555C0.419,-0.554 0.427,-0.553 0.433,-0.552L0.422,-0.412C0.417,-0.414 0.41,-0.415 0.401,-0.416C0.392,-0.417 0.384,-0.417 0.378,-0.417C0.359,-0.417 0.34,-0.415 0.322,-0.41C0.304,-0.405 0.288,-0.397 0.273,-0.386C0.259,-0.375 0.248,-0.361 0.24,-0.343C0.231,-0.325 0.227,-0.304 0.227,-0.278L0.227,-0L0.078,-0L0.078,-0.546L0.191,-0.546L0.213,-0.454L0.22,-0.454C0.231,-0.473 0.244,-0.49 0.26,-0.505C0.277,-0.521 0.295,-0.533 0.316,-0.542C0.336,-0.552 0.359,-0.556 0.383,-0.556Z" style="fill:rgb(0,224,255);fill-rule:nonzero;"/>
                    </g>
                    <g transform="matrix(400,0,0,400,1563.93,1048.11)">
                        <path d="M0.302,-0.557C0.375,-0.557 0.431,-0.541 0.47,-0.509C0.509,-0.477 0.529,-0.429 0.529,-0.364L0.529,-0L0.425,-0L0.396,-0.074L0.392,-0.074C0.376,-0.055 0.361,-0.039 0.344,-0.026C0.328,-0.014 0.309,-0.005 0.288,0.001C0.267,0.007 0.241,0.01 0.211,0.01C0.179,0.01 0.15,0.004 0.124,-0.009C0.099,-0.021 0.079,-0.04 0.064,-0.066C0.049,-0.091 0.042,-0.124 0.042,-0.163C0.042,-0.221 0.062,-0.264 0.103,-0.291C0.144,-0.319 0.205,-0.334 0.286,-0.337L0.381,-0.34L0.381,-0.364C0.381,-0.392 0.373,-0.413 0.358,-0.427C0.343,-0.44 0.323,-0.447 0.296,-0.447C0.27,-0.447 0.244,-0.443 0.218,-0.436C0.193,-0.428 0.167,-0.419 0.142,-0.407L0.093,-0.508C0.122,-0.523 0.154,-0.535 0.19,-0.544C0.226,-0.553 0.263,-0.557 0.302,-0.557ZM0.381,-0.253L0.323,-0.251C0.275,-0.25 0.242,-0.241 0.223,-0.225C0.204,-0.209 0.195,-0.188 0.195,-0.162C0.195,-0.139 0.201,-0.123 0.215,-0.114C0.228,-0.104 0.246,-0.099 0.267,-0.099C0.299,-0.099 0.326,-0.109 0.348,-0.127C0.37,-0.146 0.381,-0.173 0.381,-0.208L0.381,-0.253Z" style="fill:rgb(0,224,255);fill-rule:nonzero;"/>
                    </g>
                    <g transform="matrix(400,0,0,400,1805.53,1048.11)">
                        <rect x="0.078" y="-0.76" width="0.149" height="0.76" style="fill:rgb(0,224,255);fill-rule:nonzero;"/>
                    </g>
                    <g transform="matrix(400,0,0,400,1927.6,1048.11)">
                        <path d="M0.227,-0.546L0.227,-0L0.078,-0L0.078,-0.546L0.227,-0.546ZM0.153,-0.76C0.175,-0.76 0.194,-0.755 0.21,-0.744C0.226,-0.734 0.234,-0.715 0.234,-0.687C0.234,-0.659 0.226,-0.64 0.21,-0.63C0.194,-0.619 0.175,-0.614 0.153,-0.614C0.13,-0.614 0.111,-0.619 0.095,-0.63C0.08,-0.64 0.072,-0.659 0.072,-0.687C0.072,-0.715 0.08,-0.734 0.095,-0.744C0.111,-0.755 0.13,-0.76 0.153,-0.76Z" style="fill:rgb(0,224,255);fill-rule:nonzero;"/>
                    </g>
                    <g transform="matrix(400,0,0,400,2049.67,1048.11)">
                        <path d="M0.308,-0.109C0.324,-0.109 0.34,-0.111 0.356,-0.114C0.371,-0.117 0.387,-0.121 0.402,-0.126L0.402,-0.015C0.386,-0.008 0.366,-0.002 0.343,0.003C0.319,0.007 0.293,0.01 0.265,0.01C0.233,0.01 0.203,0.004 0.177,-0.006C0.152,-0.017 0.131,-0.035 0.116,-0.061C0.102,-0.087 0.094,-0.124 0.094,-0.171L0.094,-0.434L0.023,-0.434L0.023,-0.497L0.105,-0.547L0.148,-0.662L0.243,-0.662L0.243,-0.546L0.396,-0.546L0.396,-0.434L0.243,-0.434L0.243,-0.171C0.243,-0.15 0.249,-0.135 0.261,-0.124C0.273,-0.114 0.289,-0.109 0.308,-0.109Z" style="fill:rgb(0,224,255);fill-rule:nonzero;"/>
                    </g>
                    <g transform="matrix(400,0,0,400,2223.31,1048.11)">
                        <path d="M0,-0.546L0.163,-0.546L0.266,-0.239C0.269,-0.229 0.272,-0.219 0.274,-0.209C0.277,-0.199 0.279,-0.188 0.28,-0.178C0.282,-0.167 0.283,-0.156 0.284,-0.144L0.287,-0.144C0.289,-0.162 0.292,-0.178 0.295,-0.193C0.299,-0.209 0.303,-0.224 0.308,-0.239L0.409,-0.546L0.569,-0.546L0.338,0.07C0.324,0.108 0.306,0.139 0.283,0.164C0.261,0.19 0.235,0.208 0.206,0.221C0.177,0.234 0.145,0.24 0.11,0.24C0.093,0.24 0.078,0.239 0.066,0.238C0.054,0.236 0.043,0.234 0.034,0.232L0.034,0.114C0.041,0.115 0.05,0.117 0.06,0.118C0.07,0.119 0.081,0.12 0.093,0.12C0.114,0.12 0.132,0.116 0.146,0.107C0.161,0.098 0.174,0.086 0.184,0.072C0.194,0.057 0.202,0.041 0.208,0.023L0.217,-0.004L0,-0.546Z" style="fill:rgb(0,224,255);fill-rule:nonzero;"/>
                    </g>
                    <g transform="matrix(400,0,0,400,2450.85,1048.11)">
                    </g>
                </g>
                <g transform="matrix(1,0,0,1,-68.446,437.091)">
                    <g transform="matrix(300,0,0,300,557.877,1048.11)">
                        <path d="M0.445,-0.154C0.445,-0.119 0.437,-0.089 0.419,-0.064C0.402,-0.04 0.377,-0.021 0.344,-0.009C0.311,0.004 0.27,0.01 0.223,0.01C0.185,0.01 0.152,0.007 0.125,0.002C0.098,-0.004 0.072,-0.012 0.048,-0.023L0.048,-0.122C0.074,-0.11 0.103,-0.099 0.135,-0.091C0.167,-0.082 0.197,-0.078 0.226,-0.078C0.264,-0.078 0.291,-0.084 0.307,-0.095C0.324,-0.107 0.333,-0.123 0.333,-0.143C0.333,-0.155 0.329,-0.165 0.323,-0.175C0.316,-0.184 0.303,-0.193 0.285,-0.203C0.267,-0.213 0.241,-0.225 0.206,-0.239C0.172,-0.253 0.143,-0.266 0.119,-0.28C0.096,-0.294 0.078,-0.31 0.066,-0.33C0.054,-0.349 0.048,-0.374 0.048,-0.404C0.048,-0.452 0.067,-0.488 0.105,-0.513C0.143,-0.538 0.193,-0.551 0.256,-0.551C0.289,-0.551 0.32,-0.547 0.35,-0.541C0.379,-0.534 0.408,-0.524 0.437,-0.511L0.4,-0.425C0.376,-0.436 0.351,-0.445 0.327,-0.452C0.302,-0.459 0.277,-0.462 0.252,-0.462C0.222,-0.462 0.2,-0.458 0.184,-0.448C0.169,-0.439 0.161,-0.426 0.161,-0.41C0.161,-0.397 0.165,-0.386 0.172,-0.377C0.18,-0.369 0.193,-0.36 0.211,-0.351C0.23,-0.342 0.255,-0.331 0.288,-0.318C0.32,-0.306 0.348,-0.293 0.372,-0.279C0.395,-0.266 0.413,-0.249 0.426,-0.23C0.439,-0.21 0.445,-0.185 0.445,-0.154Z" style="fill:rgb(0,224,255);fill-rule:nonzero;"/>
                    </g>
                    <g transform="matrix(300,0,0,300,748.922,1048.11)">
                        <path d="M0.561,-0.271C0.561,-0.226 0.555,-0.187 0.543,-0.152C0.531,-0.117 0.514,-0.088 0.492,-0.064C0.469,-0.04 0.442,-0.021 0.411,-0.009C0.379,0.004 0.343,0.01 0.304,0.01C0.267,0.01 0.233,0.004 0.202,-0.009C0.171,-0.021 0.144,-0.04 0.121,-0.064C0.099,-0.088 0.081,-0.117 0.069,-0.152C0.056,-0.187 0.05,-0.226 0.05,-0.271C0.05,-0.331 0.061,-0.381 0.081,-0.423C0.102,-0.465 0.131,-0.496 0.17,-0.518C0.208,-0.54 0.254,-0.551 0.307,-0.551C0.357,-0.551 0.401,-0.54 0.439,-0.518C0.477,-0.496 0.507,-0.464 0.528,-0.423C0.55,-0.381 0.561,-0.331 0.561,-0.271ZM0.168,-0.271C0.168,-0.232 0.173,-0.198 0.183,-0.17C0.192,-0.142 0.207,-0.121 0.227,-0.106C0.247,-0.091 0.274,-0.084 0.306,-0.084C0.337,-0.084 0.363,-0.091 0.384,-0.106C0.404,-0.121 0.419,-0.142 0.428,-0.17C0.438,-0.198 0.442,-0.232 0.442,-0.271C0.442,-0.311 0.438,-0.344 0.428,-0.372C0.419,-0.399 0.404,-0.42 0.384,-0.435C0.363,-0.449 0.337,-0.456 0.305,-0.456C0.257,-0.456 0.223,-0.44 0.201,-0.408C0.179,-0.377 0.168,-0.331 0.168,-0.271Z" style="fill:rgb(0,224,255);fill-rule:nonzero;"/>
                    </g>
                    <g transform="matrix(300,0,0,300,977.028,1048.11)">
                        <rect x="0.082" y="-0.76" width="0.115" height="0.76" style="fill:rgb(0,224,255);fill-rule:nonzero;"/>
                    </g>
                    <g transform="matrix(300,0,0,300,1105.67,1048.11)">
                        <path d="M0.553,-0.541L0.553,-0L0.463,-0L0.447,-0.073L0.441,-0.073C0.43,-0.054 0.415,-0.039 0.397,-0.026C0.38,-0.014 0.36,-0.005 0.339,0.001C0.317,0.007 0.295,0.01 0.271,0.01C0.23,0.01 0.195,0.003 0.167,-0.011C0.138,-0.025 0.116,-0.046 0.1,-0.075C0.085,-0.104 0.077,-0.141 0.077,-0.187L0.077,-0.541L0.193,-0.541L0.193,-0.209C0.193,-0.167 0.201,-0.136 0.219,-0.115C0.236,-0.094 0.262,-0.083 0.298,-0.083C0.333,-0.083 0.361,-0.09 0.381,-0.105C0.402,-0.119 0.416,-0.14 0.425,-0.168C0.434,-0.196 0.438,-0.231 0.438,-0.271L0.438,-0.541L0.553,-0.541Z" style="fill:rgb(0,224,255);fill-rule:nonzero;"/>
                    </g>
                    <g transform="matrix(300,0,0,300,1341.25,1048.11)">
                        <path d="M0.283,-0.083C0.298,-0.083 0.313,-0.084 0.328,-0.087C0.342,-0.09 0.356,-0.093 0.368,-0.097L0.368,-0.01C0.355,-0.005 0.339,0 0.318,0.004C0.298,0.008 0.277,0.01 0.255,0.01C0.225,0.01 0.197,0.005 0.173,-0.006C0.148,-0.016 0.129,-0.033 0.115,-0.058C0.1,-0.083 0.093,-0.118 0.093,-0.163L0.093,-0.453L0.019,-0.453L0.019,-0.504L0.099,-0.545L0.136,-0.661L0.208,-0.661L0.208,-0.541L0.363,-0.541L0.363,-0.453L0.208,-0.453L0.208,-0.164C0.208,-0.137 0.215,-0.116 0.229,-0.103C0.242,-0.089 0.261,-0.083 0.283,-0.083Z" style="fill:rgb(0,224,255);fill-rule:nonzero;"/>
                    </g>
                    <g transform="matrix(300,0,0,300,1504.83,1048.11)">
                        <path d="M0.197,-0.541L0.197,-0L0.082,-0L0.082,-0.541L0.197,-0.541ZM0.14,-0.748C0.158,-0.748 0.173,-0.743 0.186,-0.733C0.198,-0.724 0.205,-0.708 0.205,-0.685C0.205,-0.662 0.198,-0.646 0.186,-0.636C0.173,-0.626 0.158,-0.621 0.14,-0.621C0.122,-0.621 0.106,-0.626 0.094,-0.636C0.081,-0.646 0.075,-0.662 0.075,-0.685C0.075,-0.708 0.081,-0.724 0.094,-0.733C0.106,-0.743 0.122,-0.748 0.14,-0.748Z" style="fill:rgb(0,224,255);fill-rule:nonzero;"/>
                    </g>
                    <g transform="matrix(300,0,0,300,1633.47,1048.11)">
                        <path d="M0.561,-0.271C0.561,-0.226 0.555,-0.187 0.543,-0.152C0.531,-0.117 0.514,-0.088 0.492,-0.064C0.469,-0.04 0.442,-0.021 0.411,-0.009C0.379,0.004 0.343,0.01 0.304,0.01C0.267,0.01 0.233,0.004 0.202,-0.009C0.171,-0.021 0.144,-0.04 0.121,-0.064C0.099,-0.088 0.081,-0.117 0.069,-0.152C0.056,-0.187 0.05,-0.226 0.05,-0.271C0.05,-0.331 0.061,-0.381 0.081,-0.423C0.102,-0.465 0.131,-0.496 0.17,-0.518C0.208,-0.54 0.254,-0.551 0.307,-0.551C0.357,-0.551 0.401,-0.54 0.439,-0.518C0.477,-0.496 0.507,-0.464 0.528,-0.423C0.55,-0.381 0.561,-0.331 0.561,-0.271ZM0.168,-0.271C0.168,-0.232 0.173,-0.198 0.183,-0.17C0.192,-0.142 0.207,-0.121 0.227,-0.106C0.247,-0.091 0.274,-0.084 0.306,-0.084C0.337,-0.084 0.363,-0.091 0.384,-0.106C0.404,-0.121 0.419,-0.142 0.428,-0.17C0.438,-0.198 0.442,-0.232 0.442,-0.271C0.442,-0.311 0.438,-0.344 0.428,-0.372C0.419,-0.399 0.404,-0.42 0.384,-0.435C0.363,-0.449 0.337,-0.456 0.305,-0.456C0.257,-0.456 0.223,-0.44 0.201,-0.408C0.179,-0.377 0.168,-0.331 0.168,-0.271Z" style="fill:rgb(0,224,255);fill-rule:nonzero;"/>
                    </g>
                    <g transform="matrix(300,0,0,300,1861.57,1048.11)">
                        <path d="M0.364,-0.551C0.424,-0.551 0.472,-0.535 0.506,-0.503C0.54,-0.472 0.557,-0.422 0.557,-0.352L0.557,-0L0.442,-0L0.442,-0.331C0.442,-0.373 0.434,-0.404 0.417,-0.425C0.399,-0.446 0.373,-0.457 0.336,-0.457C0.284,-0.457 0.248,-0.441 0.227,-0.408C0.207,-0.376 0.197,-0.33 0.197,-0.269L0.197,-0L0.082,-0L0.082,-0.541L0.171,-0.541L0.188,-0.467L0.194,-0.467C0.205,-0.486 0.22,-0.502 0.237,-0.514C0.255,-0.526 0.274,-0.535 0.296,-0.541C0.318,-0.547 0.34,-0.551 0.364,-0.551Z" style="fill:rgb(0,224,255);fill-rule:nonzero;"/>
                    </g>
                    <g transform="matrix(300,0,0,300,2097.15,1048.11)">
                        <path d="M0.445,-0.154C0.445,-0.119 0.437,-0.089 0.419,-0.064C0.402,-0.04 0.377,-0.021 0.344,-0.009C0.311,0.004 0.27,0.01 0.223,0.01C0.185,0.01 0.152,0.007 0.125,0.002C0.098,-0.004 0.072,-0.012 0.048,-0.023L0.048,-0.122C0.074,-0.11 0.103,-0.099 0.135,-0.091C0.167,-0.082 0.197,-0.078 0.226,-0.078C0.264,-0.078 0.291,-0.084 0.307,-0.095C0.324,-0.107 0.333,-0.123 0.333,-0.143C0.333,-0.155 0.329,-0.165 0.323,-0.175C0.316,-0.184 0.303,-0.193 0.285,-0.203C0.267,-0.213 0.241,-0.225 0.206,-0.239C0.172,-0.253 0.143,-0.266 0.119,-0.28C0.096,-0.294 0.078,-0.31 0.066,-0.33C0.054,-0.349 0.048,-0.374 0.048,-0.404C0.048,-0.452 0.067,-0.488 0.105,-0.513C0.143,-0.538 0.193,-0.551 0.256,-0.551C0.289,-0.551 0.32,-0.547 0.35,-0.541C0.379,-0.534 0.408,-0.524 0.437,-0.511L0.4,-0.425C0.376,-0.436 0.351,-0.445 0.327,-0.452C0.302,-0.459 0.277,-0.462 0.252,-0.462C0.222,-0.462 0.2,-0.458 0.184,-0.448C0.169,-0.439 0.161,-0.426 0.161,-0.41C0.161,-0.397 0.165,-0.386 0.172,-0.377C0.18,-0.369 0.193,-0.36 0.211,-0.351C0.23,-0.342 0.255,-0.331 0.288,-0.318C0.32,-0.306 0.348,-0.293 0.372,-0.279C0.395,-0.266 0.413,-0.249 0.426,-0.23C0.439,-0.21 0.445,-0.185 0.445,-0.154Z" style="fill:rgb(0,224,255);fill-rule:nonzero;"/>
                    </g>
                    <g transform="matrix(300,0,0,300,2243.19,1048.11)">
                    </g>
                </g>
            </g>
            <g transform="matrix(0.85,0,0,2.75,-678.241,-2334.26)">
                <g transform="matrix(4.16667,0,0,4.16667,1107.99,1229.58)">
                    <path d="M0,91.022C2.041,89.259 4.128,90.433 5.724,92.207C7.089,93.724 16.674,109.986 16.489,111.055C1.259,134.651 -21.664,154.104 -51.694,150.62C-54.126,150.338 -62.367,148.343 -63.141,146.067L-63.363,-46.834C-62.617,-52.971 -46.214,-56.6 -40.68,-57.151C18.887,-63.082 47.8,19.45 76.477,58.449C82.848,67.113 101.367,84.645 101.615,94.332C101.844,103.253 94.039,104.577 87.011,101.909C52.249,88.714 23.371,-1.145 -16.636,-23.438C-24.618,-27.886 -39.918,-34.763 -39.337,-19.808C-36.864,23.211 -42.502,69.661 -39.346,112.272C-39.179,114.52 -38.898,120.837 -36.669,121.614C-28.918,124.317 -15.04,110.613 -10.328,105.201C-7.22,101.63 -2.694,93.349 0,91.022" style="fill:rgb(0,224,255);fill-rule:nonzero;"/>
                </g>
                <g transform="matrix(4.16667,0,0,4.16667,1619.23,1793.56)">
                    <path d="M0,-165.628C-17.241,-165.639 -31.625,-154.675 -40.629,-140.757C-45.282,-133.564 -47.007,-125.094 -52.484,-118.837C-56.709,-118.482 -65.497,-138.624 -68.65,-142.134C-54.248,-174.033 -26.539,-196.725 10.22,-192.348C13.323,-191.979 22.879,-190.029 23.808,-186.936L24.048,-39.08C24.914,13.791 -24.15,31.097 -64.328,1.2C-82.466,-12.296 -96.076,-35.219 -107.801,-54.327C-117.225,-69.686 -129.478,-88.896 -137.522,-104.606C-141.037,-111.472 -146.958,-122.754 -141.879,-130.004C-137.538,-136.201 -131.664,-129.167 -128.488,-125.64C-101.93,-96.143 -72.193,-22.023 -32.818,-11.31C-20.298,-7.903 -4.588,-11.247 -1.235,-25.363C-1.03,-26.225 0,-32.66 0,-33.128L0,-165.628Z" style="fill:rgb(0,224,255);fill-rule:nonzero;"/>
                </g>
            </g>
        </g>
    </g>
    <g id="logo" transform="matrix(1.17647,0,0,0.363636,23.8166,7.25108)">
        <rect x="0" y="0" width="2550" height="3300" style="fill:none;"/>
        <g transform="matrix(1,0,0,1,14.8257,0)">
            <g transform="matrix(0.85,0,0,2.75,558.853,-1628.13)">
                <g transform="matrix(1,0,0,1,-189.252,103.351)">
                    <g transform="matrix(400,0,0,400,557.877,1048.11)">
                        <path d="M0.723,-0L0.531,-0L0.22,-0.54L0.216,-0.54C0.217,-0.518 0.218,-0.495 0.219,-0.472C0.22,-0.449 0.224,-0.359 0.225,-0.336L0.225,-0L0.09,-0L0.09,-0.714L0.281,-0.714L0.591,-0.179L0.594,-0.179C0.594,-0.201 0.593,-0.223 0.592,-0.245C0.591,-0.267 0.59,-0.289 0.589,-0.311C0.588,-0.332 0.588,-0.354 0.587,-0.376L0.587,-0.714L0.723,-0.714L0.723,-0Z" style="fill:rgb(10,27,61);fill-rule:nonzero;"/>
                    </g>
                    <g transform="matrix(400,0,0,400,883.073,1048.11)">
                        <path d="M0.303,-0.556C0.354,-0.556 0.397,-0.546 0.434,-0.527C0.47,-0.508 0.498,-0.48 0.518,-0.443C0.538,-0.406 0.548,-0.361 0.548,-0.308L0.548,-0.236L0.196,-0.236C0.197,-0.194 0.21,-0.161 0.234,-0.137C0.257,-0.113 0.29,-0.101 0.332,-0.101C0.367,-0.101 0.399,-0.105 0.428,-0.112C0.457,-0.119 0.486,-0.13 0.517,-0.144L0.517,-0.029C0.49,-0.015 0.462,-0.006 0.432,0C0.403,0.007 0.367,0.01 0.325,0.01C0.271,0.01 0.222,-0 0.18,-0.021C0.138,-0.041 0.105,-0.071 0.081,-0.113C0.057,-0.154 0.045,-0.206 0.045,-0.269C0.045,-0.333 0.056,-0.386 0.077,-0.428C0.099,-0.471 0.129,-0.503 0.168,-0.524C0.207,-0.545 0.252,-0.556 0.303,-0.556ZM0.304,-0.45C0.275,-0.45 0.251,-0.441 0.232,-0.422C0.213,-0.404 0.202,-0.375 0.199,-0.335L0.408,-0.335C0.408,-0.357 0.404,-0.377 0.396,-0.394C0.389,-0.411 0.377,-0.425 0.362,-0.435C0.347,-0.445 0.328,-0.45 0.304,-0.45Z" style="fill:rgb(10,27,61);fill-rule:nonzero;"/>
                    </g>
                    <g transform="matrix(400,0,0,400,1119.4,1048.11)">
                        <path d="M0.579,-0.546L0.579,-0L0.465,-0L0.445,-0.07L0.437,-0.07C0.425,-0.051 0.411,-0.036 0.393,-0.024C0.375,-0.013 0.356,-0.004 0.335,0.001C0.314,0.007 0.292,0.01 0.269,0.01C0.23,0.01 0.196,0.003 0.167,-0.011C0.138,-0.025 0.115,-0.046 0.099,-0.076C0.083,-0.105 0.075,-0.143 0.075,-0.19L0.075,-0.546L0.224,-0.546L0.224,-0.227C0.224,-0.188 0.231,-0.159 0.245,-0.139C0.259,-0.119 0.281,-0.109 0.312,-0.109C0.342,-0.109 0.366,-0.116 0.383,-0.13C0.401,-0.143 0.413,-0.164 0.42,-0.191C0.427,-0.218 0.43,-0.25 0.43,-0.289L0.43,-0.546L0.579,-0.546Z" style="fill:rgb(10,27,61);fill-rule:nonzero;"/>
                    </g>
                    <g transform="matrix(400,0,0,400,1382.29,1048.11)">
                        <path d="M0.383,-0.556C0.39,-0.556 0.399,-0.556 0.409,-0.555C0.419,-0.554 0.427,-0.553 0.433,-0.552L0.422,-0.412C0.417,-0.414 0.41,-0.415 0.401,-0.416C0.392,-0.417 0.384,-0.417 0.378,-0.417C0.359,-0.417 0.34,-0.415 0.322,-0.41C0.304,-0.405 0.288,-0.397 0.273,-0.386C0.259,-0.375 0.248,-0.361 0.24,-0.343C0.231,-0.325 0.227,-0.304 0.227,-0.278L0.227,-0L0.078,-0L0.078,-0.546L0.191,-0.546L0.213,-0.454L0.22,-0.454C0.231,-0.473 0.244,-0.49 0.26,-0.505C0.277,-0.521 0.295,-0.533 0.316,-0.542C0.336,-0.552 0.359,-0.556 0.383,-0.556Z" style="fill:rgb(10,27,61);fill-rule:nonzero;"/>
                    </g>
                    <g transform="matrix(400,0,0,400,1563.93,1048.11)">
                        <path d="M0.302,-0.557C0.375,-0.557 0.431,-0.541 0.47,-0.509C0.509,-0.477 0.529,-0.429 0.529,-0.364L0.529,-0L0.425,-0L0.396,-0.074L0.392,-0.074C0.376,-0.055 0.361,-0.039 0.344,-0.026C0.328,-0.014 0.309,-0.005 0.288,0.001C0.267,0.007 0.241,0.01 0.211,0.01C0.179,0.01 0.15,0.004 0.124,-0.009C0.099,-0.021 0.079,-0.04 0.064,-0.066C0.049,-0.091 0.042,-0.124 0.042,-0.163C0.042,-0.221 0.062,-0.264 0.103,-0.291C0.144,-0.319 0.205,-0.334 0.286,-0.337L0.381,-0.34L0.381,-0.364C0.381,-0.392 0.373,-0.413 0.358,-0.427C0.343,-0.44 0.323,-0.447 0.296,-0.447C0.27,-0.447 0.244,-0.443 0.218,-0.436C0.193,-0.428 0.167,-0.419 0.142,-0.407L0.093,-0.508C0.122,-0.523 0.154,-0.535 0.19,-0.544C0.226,-0.553 0.263,-0.557 0.302,-0.557ZM0.381,-0.253L0.323,-0.251C0.275,-0.25 0.242,-0.241 0.223,-0.225C0.204,-0.209 0.195,-0.188 0.195,-0.162C0.195,-0.139 0.201,-0.123 0.215,-0.114C0.228,-0.104 0.246,-0.099 0.267,-0.099C0.299,-0.099 0.326,-0.109 0.348,-0.127C0.37,-0.146 0.381,-0.173 0.381,-0.208L0.381,-0.253Z" style="fill:rgb(10,27,61);fill-rule:nonzero;"/>
                    </g>
                    <g transform="matrix(400,0,0,400,1805.53,1048.11)">
                        <rect x="0.078" y="-0.76" width="0.149" height="0.76" style="fill:rgb(10,27,61);fill-rule:nonzero;"/>
                    </g>
                    <g transform="matrix(400,0,0,400,1927.6,1048.11)">
                        <path d="M0.227,-0.546L0.227,-0L0.078,-0L0.078,-0.546L0.227,-0.546ZM0.153,-0.76C0.175,-0.76 0.194,-0.755 0.21,-0.744C0.226,-0.734 0.234,-0.715 0.234,-0.687C0.234,-0.659 0.226,-0.64 0.21,-0.63C0.194,-0.619 0.175,-0.614 0.153,-0.614C0.13,-0.614 0.111,-0.619 0.095,-0.63C0.08,-0.64 0.072,-0.659 0.072,-0.687C0.072,-0.715 0.08,-0.734 0.095,-0.744C0.111,-0.755 0.13,-0.76 0.153,-0.76Z" style="fill:rgb(10,27,61);fill-rule:nonzero;"/>
                    </g>
                    <g transform="matrix(400,0,0,400,2049.67,1048.11)">
                        <path d="M0.308,-0.109C0.324,-0.109 0.34,-0.111 0.356,-0.114C0.371,-0.117 0.387,-0.121 0.402,-0.126L0.402,-0.015C0.386,-0.008 0.366,-0.002 0.343,0.003C0.319,0.007 0.293,0.01 0.265,0.01C0.233,0.01 0.203,0.004 0.177,-0.006C0.152,-0.017 0.131,-0.035 0.116,-0.061C0.102,-0.087 0.094,-0.124 0.094,-0.171L0.094,-0.434L0.023,-0.434L0.023,-0.497L0.105,-0.547L0.148,-0.662L0.243,-0.662L0.243,-0.546L0.396,-0.546L0.396,-0.434L0.243,-0.434L0.243,-0.171C0.243,-0.15 0.249,-0.135 0.261,-0.124C0.273,-0.114 0.289,-0.109 0.308,-0.109Z" style="fill:rgb(10,27,61);fill-rule:nonzero;"/>
                    </g>
                    <g transform="matrix(400,0,0,400,2223.31,1048.11)">
                        <path d="M0,-0.546L0.163,-0.546L0.266,-0.239C0.269,-0.229 0.272,-0.219 0.274,-0.209C0.277,-0.199 0.279,-0.188 0.28,-0.178C0.282,-0.167 0.283,-0.156 0.284,-0.144L0.287,-0.144C0.289,-0.162 0.292,-0.178 0.295,-0.193C0.299,-0.209 0.303,-0.224 0.308,-0.239L0.409,-0.546L0.569,-0.546L0.338,0.07C0.324,0.108 0.306,0.139 0.283,0.164C0.261,0.19 0.235,0.208 0.206,0.221C0.177,0.234 0.145,0.24 0.11,0.24C0.093,0.24 0.078,0.239 0.066,0.238C0.054,0.236 0.043,0.234 0.034,0.232L0.034,0.114C0.041,0.115 0.05,0.117 0.06,0.118C0.07,0.119 0.081,0.12 0.093,0.12C0.114,0.12 0.132,0.116 0.146,0.107C0.161,0.098 0.174,0.086 0.184,0.072C0.194,0.057 0.202,0.041 0.208,0.023L0.217,-0.004L0,-0.546Z" style="fill:rgb(10,27,61);fill-rule:nonzero;"/>
                    </g>
                    <g transform="matrix(400,0,0,400,2450.85,1048.11)">
                    </g>
                </g>
                <g transform="matrix(1,0,0,1,-68.446,437.091)">
                    <g transform="matrix(300,0,0,300,557.877,1048.11)">
                        <path d="M0.445,-0.154C0.445,-0.119 0.437,-0.089 0.419,-0.064C0.402,-0.04 0.377,-0.021 0.344,-0.009C0.311,0.004 0.27,0.01 0.223,0.01C0.185,0.01 0.152,0.007 0.125,0.002C0.098,-0.004 0.072,-0.012 0.048,-0.023L0.048,-0.122C0.074,-0.11 0.103,-0.099 0.135,-0.091C0.167,-0.082 0.197,-0.078 0.226,-0.078C0.264,-0.078 0.291,-0.084 0.307,-0.095C0.324,-0.107 0.333,-0.123 0.333,-0.143C0.333,-0.155 0.329,-0.165 0.323,-0.175C0.316,-0.184 0.303,-0.193 0.285,-0.203C0.267,-0.213 0.241,-0.225 0.206,-0.239C0.172,-0.253 0.143,-0.266 0.119,-0.28C0.096,-0.294 0.078,-0.31 0.066,-0.33C0.054,-0.349 0.048,-0.374 0.048,-0.404C0.048,-0.452 0.067,-0.488 0.105,-0.513C0.143,-0.538 0.193,-0.551 0.256,-0.551C0.289,-0.551 0.32,-0.547 0.35,-0.541C0.379,-0.534 0.408,-0.524 0.437,-0.511L0.4,-0.425C0.376,-0.436 0.351,-0.445 0.327,-0.452C0.302,-0.459 0.277,-0.462 0.252,-0.462C0.222,-0.462 0.2,-0.458 0.184,-0.448C0.169,-0.439 0.161,-0.426 0.161,-0.41C0.161,-0.397 0.165,-0.386 0.172,-0.377C0.18,-0.369 0.193,-0.36 0.211,-0.351C0.23,-0.342 0.255,-0.331 0.288,-0.318C0.32,-0.306 0.348,-0.293 0.372,-0.279C0.395,-0.266 0.413,-0.249 0.426,-0.23C0.439,-0.21 0.445,-0.185 0.445,-0.154Z" style="fill:rgb(10,27,61);fill-rule:nonzero;"/>
                    </g>
                    <g transform="matrix(300,0,0,300,748.922,1048.11)">
                        <path d="M0.561,-0.271C0.561,-0.226 0.555,-0.187 0.543,-0.152C0.531,-0.117 0.514,-0.088 0.492,-0.064C0.469,-0.04 0.442,-0.021 0.411,-0.009C0.379,0.004 0.343,0.01 0.304,0.01C0.267,0.01 0.233,0.004 0.202,-0.009C0.171,-0.021 0.144,-0.04 0.121,-0.064C0.099,-0.088 0.081,-0.117 0.069,-0.152C0.056,-0.187 0.05,-0.226 0.05,-0.271C0.05,-0.331 0.061,-0.381 0.081,-0.423C0.102,-0.465 0.131,-0.496 0.17,-0.518C0.208,-0.54 0.254,-0.551 0.307,-0.551C0.357,-0.551 0.401,-0.54 0.439,-0.518C0.477,-0.496 0.507,-0.464 0.528,-0.423C0.55,-0.381 0.561,-0.331 0.561,-0.271ZM0.168,-0.271C0.168,-0.232 0.173,-0.198 0.183,-0.17C0.192,-0.142 0.207,-0.121 0.227,-0.106C0.247,-0.091 0.274,-0.084 0.306,-0.084C0.337,-0.084 0.363,-0.091 0.384,-0.106C0.404,-0.121 0.419,-0.142 0.428,-0.17C0.438,-0.198 0.442,-0.232 0.442,-0.271C0.442,-0.311 0.438,-0.344 0.428,-0.372C0.419,-0.399 0.404,-0.42 0.384,-0.435C0.363,-0.449 0.337,-0.456 0.305,-0.456C0.257,-0.456 0.223,-0.44 0.201,-0.408C0.179,-0.377 0.168,-0.331 0.168,-0.271Z" style="fill:rgb(10,27,61);fill-rule:nonzero;"/>
                    </g>
                    <g transform="matrix(300,0,0,300,977.028,1048.11)">
                        <rect x="0.082" y="-0.76" width="0.115" height="0.76" style="fill:rgb(10,27,61);fill-rule:nonzero;"/>
                    </g>
                    <g transform="matrix(300,0,0,300,1105.67,1048.11)">
                        <path d="M0.553,-0.541L0.553,-0L0.463,-0L0.447,-0.073L0.441,-0.073C0.43,-0.054 0.415,-0.039 0.397,-0.026C0.38,-0.014 0.36,-0.005 0.339,0.001C0.317,0.007 0.295,0.01 0.271,0.01C0.23,0.01 0.195,0.003 0.167,-0.011C0.138,-0.025 0.116,-0.046 0.1,-0.075C0.085,-0.104 0.077,-0.141 0.077,-0.187L0.077,-0.541L0.193,-0.541L0.193,-0.209C0.193,-0.167 0.201,-0.136 0.219,-0.115C0.236,-0.094 0.262,-0.083 0.298,-0.083C0.333,-0.083 0.361,-0.09 0.381,-0.105C0.402,-0.119 0.416,-0.14 0.425,-0.168C0.434,-0.196 0.438,-0.231 0.438,-0.271L0.438,-0.541L0.553,-0.541Z" style="fill:rgb(10,27,61);fill-rule:nonzero;"/>
                    </g>
                    <g transform="matrix(300,0,0,300,1341.25,1048.11)">
                        <path d="M0.283,-0.083C0.298,-0.083 0.313,-0.084 0.328,-0.087C0.342,-0.09 0.356,-0.093 0.368,-0.097L0.368,-0.01C0.355,-0.005 0.339,0 0.318,0.004C0.298,0.008 0.277,0.01 0.255,0.01C0.225,0.01 0.197,0.005 0.173,-0.006C0.148,-0.016 0.129,-0.033 0.115,-0.058C0.1,-0.083 0.093,-0.118 0.093,-0.163L0.093,-0.453L0.019,-0.453L0.019,-0.504L0.099,-0.545L0.136,-0.661L0.208,-0.661L0.208,-0.541L0.363,-0.541L0.363,-0.453L0.208,-0.453L0.208,-0.164C0.208,-0.137 0.215,-0.116 0.229,-0.103C0.242,-0.089 0.261,-0.083 0.283,-0.083Z" style="fill:rgb(10,27,61);fill-rule:nonzero;"/>
                    </g>
                    <g transform="matrix(300,0,0,300,1504.83,1048.11)">
                        <path d="M0.197,-0.541L0.197,-0L0.082,-0L0.082,-0.541L0.197,-0.541ZM0.14,-0.748C0.158,-0.748 0.173,-0.743 0.186,-0.733C0.198,-0.724 0.205,-0.708 0.205,-0.685C0.205,-0.662 0.198,-0.646 0.186,-0.636C0.173,-0.626 0.158,-0.621 0.14,-0.621C0.122,-0.621 0.106,-0.626 0.094,-0.636C0.081,-0.646 0.075,-0.662 0.075,-0.685C0.075,-0.708 0.081,-0.724 0.094,-0.733C0.106,-0.743 0.122,-0.748 0.14,-0.748Z" style="fill:rgb(10,27,61);fill-rule:nonzero;"/>
                    </g>
                    <g transform="matrix(300,0,0,300,1633.47,1048.11)">
                        <path d="M0.561,-0.271C0.561,-0.226 0.555,-0.187 0.543,-0.152C0.531,-0.117 0.514,-0.088 0.492,-0.064C0.469,-0.04 0.442,-0.021 0.411,-0.009C0.379,0.004 0.343,0.01 0.304,0.01C0.267,0.01 0.233,0.004 0.202,-0.009C0.171,-0.021 0.144,-0.04 0.121,-0.064C0.099,-0.088 0.081,-0.117 0.069,-0.152C0.056,-0.187 0.05,-0.226 0.05,-0.271C0.05,-0.331 0.061,-0.381 0.081,-0.423C0.102,-0.465 0.131,-0.496 0.17,-0.518C0.208,-0.54 0.254,-0.551 0.307,-0.551C0.357,-0.551 0.401,-0.54 0.439,-0.518C0.477,-0.496 0.507,-0.464 0.528,-0.423C0.55,-0.381 0.561,-0.331 0.561,-0.271ZM0.168,-0.271C0.168,-0.232 0.173,-0.198 0.183,-0.17C0.192,-0.142 0.207,-0.121 0.227,-0.106C0.247,-0.091 0.274,-0.084 0.306,-0.084C0.337,-0.084 0.363,-0.091 0.384,-0.106C0.404,-0.121 0.419,-0.142 0.428,-0.17C0.438,-0.198 0.442,-0.232 0.442,-0.271C0.442,-0.311 0.438,-0.344 0.428,-0.372C0.419,-0.399 0.404,-0.42 0.384,-0.435C0.363,-0.449 0.337,-0.456 0.305,-0.456C0.257,-0.456 0.223,-0.44 0.201,-0.408C0.179,-0.377 0.168,-0.331 0.168,-0.271Z" style="fill:rgb(10,27,61);fill-rule:nonzero;"/>
                    </g>
                    <g transform="matrix(300,0,0,300,1861.57,1048.11)">
                        <path d="M0.364,-0.551C0.424,-0.551 0.472,-0.535 0.506,-0.503C0.54,-0.472 0.557,-0.422 0.557,-0.352L0.557,-0L0.442,-0L0.442,-0.331C0.442,-0.373 0.434,-0.404 0.417,-0.425C0.399,-0.446 0.373,-0.457 0.336,-0.457C0.284,-0.457 0.248,-0.441 0.227,-0.408C0.207,-0.376 0.197,-0.33 0.197,-0.269L0.197,-0L0.082,-0L0.082,-0.541L0.171,-0.541L0.188,-0.467L0.194,-0.467C0.205,-0.486 0.22,-0.502 0.237,-0.514C0.255,-0.526 0.274,-0.535 0.296,-0.541C0.318,-0.547 0.34,-0.551 0.364,-0.551Z" style="fill:rgb(10,27,61);fill-rule:nonzero;"/>
                    </g>
                    <g transform="matrix(300,0,0,300,2097.15,1048.11)">
                        <path d="M0.445,-0.154C0.445,-0.119 0.437,-0.089 0.419,-0.064C0.402,-0.04 0.377,-0.021 0.344,-0.009C0.311,0.004 0.27,0.01 0.223,0.01C0.185,0.01 0.152,0.007 0.125,0.002C0.098,-0.004 0.072,-0.012 0.048,-0.023L0.048,-0.122C0.074,-0.11 0.103,-0.099 0.135,-0.091C0.167,-0.082 0.197,-0.078 0.226,-0.078C0.264,-0.078 0.291,-0.084 0.307,-0.095C0.324,-0.107 0.333,-0.123 0.333,-0.143C0.333,-0.155 0.329,-0.165 0.323,-0.175C0.316,-0.184 0.303,-0.193 0.285,-0.203C0.267,-0.213 0.241,-0.225 0.206,-0.239C0.172,-0.253 0.143,-0.266 0.119,-0.28C0.096,-0.294 0.078,-0.31 0.066,-0.33C0.054,-0.349 0.048,-0.374 0.048,-0.404C0.048,-0.452 0.067,-0.488 0.105,-0.513C0.143,-0.538 0.193,-0.551 0.256,-0.551C0.289,-0.551 0.32,-0.547 0.35,-0.541C0.379,-0.534 0.408,-0.524 0.437,-0.511L0.4,-0.425C0.376,-0.436 0.351,-0.445 0.327,-0.452C0.302,-0.459 0.277,-0.462 0.252,-0.462C0.222,-0.462 0.2,-0.458 0.184,-0.448C0.169,-0.439 0.161,-0.426 0.161,-0.41C0.161,-0.397 0.165,-0.386 0.172,-0.377C0.18,-0.369 0.193,-0.36 0.211,-0.351C0.23,-0.342 0.255,-0.331 0.288,-0.318C0.32,-0.306 0.348,-0.293 0.372,-0.279C0.395,-0.266 0.413,-0.249 0.426,-0.23C0.439,-0.21 0.445,-0.185 0.445,-0.154Z" style="fill:rgb(10,27,61);fill-rule:nonzero;"/>
                    </g>
                    <g transform="matrix(300,0,0,300,2243.19,1048.11)">
                    </g>
                </g>
            </g>
            <g transform="matrix(0.85,0,0,2.75,-678.241,-2334.26)">
                <g transform="matrix(4.16667,0,0,4.16667,1107.99,1229.58)">
                    <path d="M0,91.022C2.041,89.259 4.128,90.433 5.724,92.207C7.089,93.724 16.674,109.986 16.489,111.055C1.259,134.651 -21.664,154.104 -51.694,150.62C-54.126,150.338 -62.367,148.343 -63.141,146.067L-63.363,-46.834C-62.617,-52.971 -46.214,-56.6 -40.68,-57.151C18.887,-63.082 47.8,19.45 76.477,58.449C82.848,67.113 101.367,84.645 101.615,94.332C101.844,103.253 94.039,104.577 87.011,101.909C52.249,88.714 23.371,-1.145 -16.636,-23.438C-24.618,-27.886 -39.918,-34.763 -39.337,-19.808C-36.864,23.211 -42.502,69.661 -39.346,112.272C-39.179,114.52 -38.898,120.837 -36.669,121.614C-28.918,124.317 -15.04,110.613 -10.328,105.201C-7.22,101.63 -2.694,93.349 0,91.022" style="fill:rgb(10,27,61);fill-rule:nonzero;"/>
                </g>
                <g transform="matrix(4.16667,0,0,4.16667,1619.23,1793.56)">
                    <path d="M0,-165.628C-17.241,-165.639 -31.625,-154.675 -40.629,-140.757C-45.282,-133.564 -47.007,-125.094 -52.484,-118.837C-56.709,-118.482 -65.497,-138.624 -68.65,-142.134C-54.248,-174.033 -26.539,-196.725 10.22,-192.348C13.323,-191.979 22.879,-190.029 23.808,-186.936L24.048,-39.08C24.914,13.791 -24.15,31.097 -64.328,1.2C-82.466,-12.296 -96.076,-35.219 -107.801,-54.327C-117.225,-69.686 -129.478,-88.896 -137.522,-104.606C-141.037,-111.472 -146.958,-122.754 -141.879,-130.004C-137.538,-136.201 -131.664,-129.167 -128.488,-125.64C-101.93,-96.143 -72.193,-22.023 -32.818,-11.31C-20.298,-7.903 -4.588,-11.247 -1.235,-25.363C-1.03,-26.225 0,-32.66 0,-33.128L0,-165.628Z" style="fill:rgb(10,27,61);fill-rule:nonzero;"/>
                </g>
            </g>
        </g>
    </g>
</svg>
